<?xml version="1.0" encoding="UTF-8"?>
<svg id="Capa_2" xmlns="http://www.w3.org/2000/svg" version="1.1" viewBox="0 0 362.83 362.83">
  <!-- Generator: Adobe Illustrator 29.6.1, SVG Export Plug-In . SVG Version: 2.1.1 Build 9)  -->
  <defs>
    <style>
      .st0 {
        fill: #1d1d1b;
      }

      .st1 {
        fill: #fff;
      }
    </style>
  </defs>
  <rect class="st0" width="362.83" height="362.83"/>
  <g>
    <g>
      <path class="st1" d="M100.56,244.04h42.89v9.01h-32.46v15.6h30.04v8.51h-30.04v17.44h33.04v9.01h-43.47v-59.58h0Z"/>
      <path class="st1" d="M152.88,244.04h10.43v23.7h27.12v-23.7h10.43v59.58h-10.43v-26.87h-27.12v26.87h-10.43v-59.58Z"/>
      <path class="st1" d="M212.71,244.04h10.43v34.71c0,2,.1,4.03.29,6.09.19,2.06.75,3.91,1.67,5.55.92,1.64,2.31,2.99,4.17,4.05s4.49,1.58,7.89,1.58,6.02-.53,7.89-1.58c1.86-1.06,3.25-2.41,4.17-4.05.92-1.64,1.47-3.49,1.67-5.55.19-2.06.29-4.09.29-6.09v-34.71h10.43v38.13c0,3.84-.58,7.18-1.75,10.01-1.17,2.84-2.82,5.21-4.97,7.13-2.14,1.92-4.71,3.35-7.72,4.3s-6.34,1.42-10.01,1.42-7.01-.47-10.01-1.42-5.58-2.38-7.72-4.3c-2.14-1.92-3.8-4.3-4.96-7.13-1.17-2.84-1.75-6.17-1.75-10.01v-38.13h0Z"/>
    </g>
    <path class="st1" d="M141.03,185.71l.13,27.36c0,3.06.63,3.39,3.74,3.42,18.29.12,36.59-.32,54.88-1.53,2.34-.16,3.02-1.02,3.16-3.57l2.06-37.8c.1-1.74.72-2.72,1.45-2.91,3.76-2.47,28.54-7.85,41.05-10.08,5.3-1.03,6.9-3.82,9.37-12.59l1.67-5.92c.54-1.63,2.35-2.41,4.2-2.83l23.73-1.61c1.73-.05,2.42-1.36,2.37-3.58l-.53-60.3c0-1.15-.78-1.6-2.33-1.64-11.34-.32-21.85-3.13-28.93-8.5-1.94-1.47-5.93-2.34-10.02-2.79-2.16-.25-5.05.39-5.86.51-7.91-.31-14.32-.61-22.24-.93-1.65.2-2.18,1.15-2.29,2.68l-.03,15.84c.04,1.34,1.48,1.63,5.37,2.17,7.92-.24,12.74,1.22,18.32,2.72,1.13.3,1.93,1.06,2.14,2.36.5,3.12,1.14,5.61,1.24,8.64.1,2.99-.37,6.02-.27,9.01.03.81-.6,1.21-1.45,1.25-3.95.19-7.73-.1-11.35-.83-1.5-.3-1.63-1.14-1.95-2.9-.44-2.46-1.1-4.05-1.77-6.41-.12-.42-.34-.6-.69-.61l-11.69-.1c-1.66-.01-2.51,3.63-2.55,5.68-.66,4.91-.33,15.98-.08,25.23-.02,1.46-.16,1.69,1.53,1.82l10.15.8c2.01.17,2.62,1.42,2.68,2.54l.34,7.06c.13,1.52-.58,2.31-2,2.5-7.8.7-15.44,1.14-23.61.86-.99.02-1.55-.8-1.6-1.99l-.15-9.62c-.08-1.62-.07-2.36-1.52-2.67-6.58-1.4-13.09-3.14-19.76-3.78-1.36-.13-3-.49-4.38-.55-2.89-.14-5.5.61-8.52.81-1.36.17-1.83.51-1.99,1.41-.56,6.45-.18,14.94.49,17.18.37,1.37.59,1.52,1.92,1.63,3.06.22,6.52,1.01,9.59,1.14,1.17.05,1.43,1,1.4,2.35l-.56,23.41c-.03,1.42-1.33,2.08-2.67,2.11-2.4.05-4.7.64-7.1.71-1.53.05-2.32-1.04-2.71-2.4-.86-2.99-1.77-5.51-2.36-8.57-.36-1.88-2.06-2.56-5.19-2.92l-18.7-2.16c-1.4-.42-2.13-.89-2.32-2.02l-.5-6.48c-.16-.95-.3-2.17.2-2.88,1.06-1.05,6.41-2.87,9.62-4.12,1.35-.52,1.15-1.37,1.07-2.5-.06-5.14-1.67-11.27-3.07-16.76-.7-2.77-.48-2.82-3.26-2.91-1.19-.1-2.66-.13-3.85-.23-3.91-.31-6.62-.13-10.38-1-.9-.1-2.49-1.83-2.18-2.85l6.01-17.97c.46-1.36.8-1.63,2.33-1.42l6.02.85c.92.13,1.63,1.08,1.8,2.19l.92,5.86c.18,1.13-.22,1.58,1.59,1.64l14.91.49c1.11.04,1.48-.86,1.63-1.61.57-2.81,1.18-5.63,1.75-8.44.45-2.23.5-3.39.53-5.67.04-3.15.08-6.26.12-9.41.02-1.67-1.09-1.83-2.51-2.52-5.38-2.61-18.49-4.96-27.87-6.57-1.11-.19-2.99-.04-4.11-.23-1.29-.22-1.74-2.09-2-2.69l-2.78-6.38c-.49-1.12-1.06-2.23-3.78-2.37-13.94-.71-27.78-1.23-41.18-.87-2.33.06-2.55.95-2.55,3.85l.03,81.16c0,1.84.61,4.4,2.84,4.43l27.67.44c1.03.02,1.38.78,1.43,1.63.35,6.77,1.96,12.72,2.93,19.44.52,3.6,1.7,8.86,5.01,9.22l24.77,2.73c2.22.25,3.03.75,3.04,2.91"/>
  </g>
</svg>