<?xml version="1.0" encoding="UTF-8" standalone="no"?>
<!-- Created with Inkscape (http://www.inkscape.org/) -->

<svg
   version="1.1"
   id="svg1"
   width="207.03107"
   height="159.87068"
   viewBox="0 0 207.03106 159.87068"
   sodipodi:docname="gobierno-vasco.svg"
   xml:space="preserve"
   inkscape:version="1.4.2 (ebf0e940, 2025-05-08)"
   xmlns:inkscape="http://www.inkscape.org/namespaces/inkscape"
   xmlns:sodipodi="http://sodipodi.sourceforge.net/DTD/sodipodi-0.dtd"
   xmlns="http://www.w3.org/2000/svg"
   xmlns:svg="http://www.w3.org/2000/svg"><defs
     id="defs1"><clipPath
       clipPathUnits="userSpaceOnUse"
       id="clipPath207"><rect
         style="opacity:0.5;fill:#000000;stroke-width:7.5"
         id="rect208"
         width="1614.9241"
         height="1208.7943"
         x="147.10199"
         y="-1869.2405"
         transform="scale(1,-1)" /></clipPath><clipPath
       clipPathUnits="userSpaceOnUse"
       id="clipPath218"><rect
         style="opacity:0.5;fill:#000000;fill-rule:evenodd;stroke-width:7.5"
         id="rect219"
         width="1552.733"
         height="1199.0302"
         x="191.59291"
         y="-1864.7914"
         transform="scale(1,-1)" /></clipPath></defs><sodipodi:namedview
     id="namedview1"
     pagecolor="#ffffff"
     bordercolor="#000000"
     borderopacity="0.25"
     inkscape:showpageshadow="2"
     inkscape:pageopacity="0.0"
     inkscape:pagecheckerboard="0"
     inkscape:deskcolor="#d1d1d1"
     inkscape:zoom="3.3714747"
     inkscape:cx="118.19754"
     inkscape:cy="27.584369"
     inkscape:window-width="1512"
     inkscape:window-height="917"
     inkscape:window-x="0"
     inkscape:window-y="65"
     inkscape:window-maximized="0"
     inkscape:current-layer="g1"><inkscape:page
       x="2.0925279e-08"
       y="1.6612372e-08"
       inkscape:label="1"
       id="page1"
       width="207.03107"
       height="159.87068"
       margin="0"
       bleed="0" /></sodipodi:namedview><g
     id="g1"
     inkscape:groupmode="layer"
     inkscape:label="1"
     transform="translate(-25.545721,-9.2876953)"><path
       id="path1"
       clip-path="url(#clipPath218)"
       style="fill:#ffffff;fill-opacity:1;fill-rule:evenodd;stroke:none"
       transform="matrix(0.13333333,0,0,-0.13333333,0,257.92654)"
       d="M 0.00237669,1927.5559 V -0.00273228 H 99.684996 C 83.91431,7.5681135 70.276752,19.16823 57.482847,31.652542 43.970427,45.033592 34.177331,60.99791 26.779721,78.36641 c -15.334875,43.5486 7.144581,71.69949 48.457033,83.54004 7.421299,1.3455 14.888404,2.38136 22.382813,3.16406 -6.058125,31.19063 -12.023554,62.43 -17.124024,93.79395 -5.474903,34.18065 -8.308575,68.67592 -10.239258,103.21289 -1.269188,25.04063 -1.877185,50.10809 -2.25586,75.17579 -0.2364,16.50157 -0.334008,33.00879 -0.395508,49.51172 -0.04125,13.30852 -0.05034,26.60839 -0.05859,39.91699 -0.006,12.76245 0.0011,25.52857 0,38.29102 -3.08e-4,4.16287 -0.01449,8.33224 -0.01465,12.49512 -2.62e-4,6.84757 1.05e-4,13.68961 0,20.53711 v 0.0146 0.0147 h 0.01465 v 0.0146 c 0.02041,4.30313 -0.08146,8.59652 0,12.90527 1.7931,94.83646 94.071253,98.3016 99.243163,10.4004 5.0158,-10.23998 11.17946,-30.32523 12.30469,-33.95508 8.68034,-32.29193 11.66073,-65.65566 14.01855,-98.89161 1.71792,-31.2702 2.04667,-62.53173 4.95118,-93.7207 3.47113,-31.86863 5.33166,-63.86525 6.54785,-95.88868 1.17019,-36.96787 1.48926,-73.94944 1.77246,-110.93262 0.0704,-10.23472 0.12841,-20.46832 0.17578,-30.70312 21.38256,-5.78738 42.30512,-13.41617 62.98828,-21.38672 3.50585,-1.4076 7.01498,-2.81815 10.51758,-4.2334 53.86178,4.09342 107.90576,4.83332 161.89454,5.63965 5.53437,0.0676 11.06224,0.13095 16.59668,0.19043 21.07006,2.5155 42.12361,5.12107 63.17871,7.77832 25.82,2.7273 51.63719,5.63805 77.46094,8.4375 0.50327,2.40825 1.92238,3.66374 4.80469,4.30664 -0.0108,0.21397 -0.0182,0.42973 -0.0293,0.64453 0,7e-5 3.9158,-8e-5 8.11523,0 1.28727,7e-5 2.6029,0 3.83789,0 2.51043,5.2e-4 4.91574,0 8.17383,0 2.60656,7e-5 5.21572,0 7.82227,0 h 14.79492 0.0146 c 37.4795,3.67822 75.00873,6.71376 112.66113,8.14453 49.20108,0.795 98.49094,0.32844 147.58302,-3.36914 12.28762,-1.21845 24.74419,-2.43522 36.87011,-4.76074 2.82983,3.7e-4 5.66627,-4.5e-4 8.4961,0 22.53262,0.003 45.06992,0.0121 67.60258,0.0146 40.2049,4.87702 80.6233,8.10249 121.0254,10.88379 71.236,4.30635 142.5827,6.03836 213.9258,7.33886 47.9164,1.17045 95.9516,-0.27922 143.4521,-6.84082 6.0708,-1.74232 50.4653,-6.25394 50.4053,-15.98144 -0.09,-14.50988 0.1039,-26.49649 0.3076,-36.44532 52.9177,-2.8956 105.8196,-5.87685 158.6866,-9.7998 1.6898,-0.0689 3.3782,-0.1479 5.0683,-0.23438 -0.9032,6.18218 -1.513,12.93399 -2.0654,20.30274 -2.216,33.34005 -1.8083,66.57063 1.3183,99.81445 4.231,40.95766 11.8188,81.47103 17.959,122.16798 4.1147,23.02207 9.8917,45.69956 13.8721,68.74512 1.6317,9.2571 2.8317,18.57164 3.6182,27.93457 0.3982,4.9845 0.5538,9.98652 0.6445,14.98535 0.093,5.2317 0.1022,10.45617 0.1172,15.68847 0.016,6.00848 0.027,12.02383 0.029,18.03223 0,5.4831 -4e-4,10.9671 0,16.4502 3e-4,5.25742 -10e-5,10.51902 0,15.77637 v 17.15332 15.79101 20.97657 21.59179 23.58399 22.76367 21.45996 18.10547 15.08789 c -2.8036,6.13913 -4.8458,12.56836 -6.4893,19.13086 -2.0708,8.39033 -2.6557,17.03287 -3.0322,25.63477 -0.1982,6.21022 -0.2839,12.43438 -0.3369,18.64746 -0.2779,0.63562 -0.586,1.32838 -0.9229,2.09473 -3.727,8.83627 -5.9628,18.12775 -7.3974,27.583 -1.0764,7.3485 -1.3134,14.77841 -1.4942,22.19239 -0.1292,1.35547 -0.2222,2.49228 -0.2929,3.44238 -0.4743,0.92888 -1.2175,2.86775 -2.3145,6.35742 -2.8459,8.96303 -4.6949,18.1584 -5.9473,27.46582 -0.9365,8.11065 -1.1921,16.26397 -1.3916,24.41895 -0.1282,5.7609 -0.1679,11.52298 -0.1904,17.28516 -0.024,5.89042 -0.026,11.79024 -0.029,17.68066 0,6.16418 6e-4,12.32223 0,18.48633 -4e-4,5.94472 0,11.88235 0,17.82715 -10e-5,5.30572 0,10.61712 0,15.92285 0,5.80478 2e-4,11.61222 0,17.41699 v 19.32128 19.79 23.2471 c -0.8614,13.7703 1.5629,27.1967 5.4492,40.3565 1.7591,4.8647 2.7253,9.9307 3.3545,15.0439 0.5299,4.7906 0.7571,9.6261 0.8936,14.4434 -0.7839,12.3021 4.9069,22.6964 9.5215,33.4277 v 0.015 h -0.015 l -0.015,0.015 v 0.015 c -0.065,0.1769 -0.085,0.8124 0.029,2.168 0.4298,4.5929 0.4598,9.2048 0.5273,13.8135 -0.8246,12.1559 3.8061,25.2927 7.8809,34.9072 1.7233,5.1803 1.0802,3.2916 1.5234,6.6065 0.4365,4.1468 0.4084,8.354 0.4834,12.5244 0.1058,6.4967 0.1533,12.985 0.1758,19.4824 0.023,6.8315 0.025,13.6616 0.029,20.4932 0,6.5905 -5e-4,13.1849 0,19.7754 4e-4,7.582 -10e-5,15.1669 0,22.749 10e-5,8.0802 0,16.1629 0,24.2431 v 19.8047 16.4356 18.7207 20.874 25.8106 23.3349 c -1.7303,2.3842 1.6669,6.3704 0,8.7744 -0.027,0.039 0.3088,-3.3933 0.015,-3.955 l -0.015,-0.015 -0.015,-0.015 v -0.015 l -0.015,-0.015 h -0.015 v -0.015 h -0.015 -0.015 -0.015 -0.015 -0.015 l -0.015,0.015 -0.015,0.015 c -0.1708,0.1524 -0.4497,0.7541 -0.835,2.0215 -0.598,1.9674 -1.1431,3.9425 -1.7138,5.918 -3.2799,12.5362 -4.8134,25.4224 -5.9033,38.3056 -0.017,-0.3275 -0.059,-0.5235 -0.1172,-0.6152 l -0.015,-0.015 v -0.015 l -0.015,-0.015 -0.015,-0.015 h -0.015 -0.015 -0.015 -0.015 -0.029 l -0.015,0.015 h -0.015 c -1.2281,0.9541 -5.9939,22.3565 -6.372,24.0821 -2.4527,11.704 -3.3092,23.6341 -3.8965,35.5517 -0.4417,11.5095 -0.5516,23.0393 -0.6446,34.5557 0.5578,11.3506 -0.9105,11.7786 -3.5742,24.126 -1.8112,8.7782 -2.9975,17.6382 -3.8525,26.5429 -1.4703,0.4223 -2.1786,1.7218 -2.5049,4.2627 -0.045,0 -0.087,-0.011 -0.1318,-0.015 -0.4288,5.9692 -0.5784,11.9609 -1.0254,17.9297 -0.7674,10.5473 -2.0698,21.0493 -3.7207,31.4941 -3.5456,22.6679 -6.289,45.4358 -5.1856,68.4375 v 63.8965 c 0,49.2271 24.8681,73.8428 49.7315,73.8428 15.0981,0 30.1944,-9.0787 39.7265,-27.2315 11.7093,-12.0309 19.9215,-32.1954 19.9219,-60.498 0,-5.9363 -4e-4,-11.8762 0,-17.8125 5e-4,-8.3314 0.012,-16.6588 0.015,-24.9902 0.01,-10.9867 0.014,-21.9724 0.029,-32.959 0.025,-12.3236 0.039,-24.6496 0.1611,-36.9727 0.1322,-11.8384 0.3405,-23.6809 0.9082,-35.5078 0.5721,-9.9109 1.2749,-19.8261 3.1641,-29.5898 3.0857,-14.5613 6.7786,-29.1272 5.7861,-44.1651 0.082,-10.2042 0.182,-20.4015 0.542,-30.6006 0.3001,-6.6183 0.6132,-13.2705 1.8603,-19.79 2.2374,-12.0803 7.3076,-23.5357 8.4522,-35.8594 0.4883,-6.4466 1.215,-12.8693 2.4463,-19.2187 3.5525,-13.0571 7.6372,-26.111 6.4746,-39.8731 v -23.3349 -25.8106 -20.874 -18.7207 -16.4356 -19.8047 c 0,-8.0804 1e-4,-16.1627 0,-24.2431 0,-7.5839 5e-4,-15.1651 0,-22.749 -3e-4,-6.6083 0,-13.2258 0,-19.834 -0.01,-6.9451 -0.01,-13.8851 -0.029,-20.8301 -0.028,-6.9671 -0.061,-13.937 -0.1758,-20.9033 -0.1545,-8.2297 -0.309,-16.4899 -1.4648,-24.6533 -1.3675,-9.4384 -3.4522,-18.7198 -6.8848,-27.6417 -0.6596,-1.6517 -1.1762,-2.9941 -1.582,-4.0576 -0.1134,-6.4154 -0.3063,-12.8296 -0.9375,-19.2187 -1.0641,-10.5667 -2.834,-21.121 -7.1778,-30.9082 -0.8533,-1.9945 -1.5933,-3.7369 -2.2119,-5.2295 -0.2717,-5.774 -0.6713,-11.5495 -1.3916,-17.2852 -1.3919,-10.3737 -3.3843,-20.6735 -6.6797,-30.6299 -0.3453,-1.131 -0.9148,-3.4447 -1.3183,-4.6142 -0.1144,-3.5841 -0.2396,-7.4096 -0.1319,-7.8223 l 0.029,-0.015 v -0.015 h 0.015 0.015 v 0.015 c 0.026,0.074 0.077,0.2709 0.1172,0.5566 v -23.2471 -19.79 -19.32128 -17.41699 c 0,-5.30543 -10e-5,-10.60278 0,-15.9082 1e-4,-5.94188 -4e-4,-11.88528 0,-17.82715 6e-4,-6.1494 0,-12.30763 0,-18.45703 0.01,-5.76698 0.01,-11.53291 0.029,-17.29981 0.021,-5.1 0.052,-10.19402 0.1611,-15.29297 0.1103,-4.6062 0.2267,-9.2168 0.5567,-13.81348 0.498,-3.9078 1.1078,-7.41718 2.4756,-11.42578 3.3091,-11.95965 7.9543,-23.76138 6.914,-36.48926 0.078,-3.34575 0.096,-6.71453 0.4541,-10.03418 0.126,-0.91965 0.1626,-1.3695 0.1465,-1.55273 0.1844,-0.5583 0.4513,-1.43003 0.835,-2.72461 3.5732,-7.76145 9.7245,-23.9111 8.3789,-36.35742 0.041,-5.99573 0.1002,-11.99443 0.2637,-17.98828 0.1515,-3.74265 0.2254,-5.71758 0.2929,-6.29883 -3.8036,6.36652 0.9024,-1.85154 2.7539,-6.24024 4.9712,-11.20657 7.173,-23.3717 6.5625,-35.5664 V 688.9133 670.80783 649.34787 626.5842 603.00021 581.40842 560.43185 c 0,-5.26507 10e-5,-10.52594 0,-15.79101 v -17.16797 c 0,-5.2593 3e-4,-10.51707 0,-15.77637 -3e-4,-5.49593 0,-10.98364 0,-16.47949 -0.01,-6.07965 8e-4,-12.15781 -0.015,-18.23731 0,-1.06342 -0.025,-2.12993 -0.029,-3.19336 1.4288,-0.6243 2.8105,-1.34217 4.1308,-2.18262 7.5814,-4.82617 17.2629,-14.64975 21.1524,-23.8623 1.9708,-4.668 7.5174,-16.71405 6.6504,-17.8125 l -0.015,-0.0147 -0.015,-0.0146 -0.015,-0.0147 h -0.015 l -0.015,-0.0146 h -0.015 l -0.015,-0.0147 c -0.01,2.4e-4 -0.041,3.7e-4 -0.044,0 -0.2058,-0.006 -0.5569,0.20572 -1.0547,0.70312 -0.043,0.0435 -0.086,0.0956 -0.1172,0.14649 1.4714,-5.30603 2.9541,-10.62694 5.2881,-15.62989 2.8255,-7.63327 5.4017,-15.43142 6.6211,-23.45215 4.1362,-9.40942 8.4639,-18.76967 11.4404,-28.6084 3.2223,-8.71672 7.2684,-17.09649 10.3272,-25.83984 4.5327,-12.91987 5.9261,-26.36078 3.8965,-39.84375 -1.3264,-11.103 -3.5723,-22.05933 -6.9287,-32.73926 -3.4581,-10.17285 -7.9385,-20.08694 -9.5069,-30.74707 -3.3608,-15.85215 -7.6433,-31.49191 -8.7305,-47.72461 -1.6772,-12.9555 -3.6121,-25.64577 -1.8896,-38.74512 0.1631,-1.87062 1.7839,-10.15835 0.9814,-10.94238 l -0.015,-0.0146 -0.015,-0.0147 -0.015,-0.0146 h -0.015 l -0.015,-0.0146 c -0.01,-0.003 -0.027,4.5e-4 -0.029,0 h -0.015 -0.015 c -0.035,0.006 -0.095,0.0249 -0.1318,0.0439 4.8029,-5.4618 9.9213,-10.69804 13.7402,-16.94824 17.8783,-28.903132 17.8052,-61.215248 -6.6357,-86.777349 -0.2359,-0.206175 -0.4809,-0.411009 -0.7178,-0.615234 3.8701,-3.94275 7.246,-8.320543 9.9463,-13.198243 3.3065,-5.972685 5.6024,-12.4325422 7.9101,-18.88183628 h 13.7403 V 1927.5559 Z M 1738.0102,777.72678 v -0.0146 c -0.03,-0.24795 0.09,-1.74786 0.5274,-5.28809 -0.019,2.33123 -0.3636,4.93549 -0.4834,5.27344 l -0.015,0.0146 v 0.0146 h -0.015 z m 148.9014,-638.24709 v -0.0147 -0.0146 -0.0146 l 0.015,-0.0147 0.015,-0.0146 c 0.6644,-0.80737 1.3928,-1.56857 2.0801,-2.3584 -0.2753,0.39878 -0.5955,0.95051 -1.0108,1.80176 -0.2641,0.13725 -0.8753,0.54683 -1.0547,0.61523 l -0.015,0.0147 h -0.015 z M 573.70845,18.293167 c 0.50086,-6.673935 0.65188,-12.7580984 0.43945,-18.29589928 H 815.07076 C 811.47565,2.0873468 808.03235,4.2654269 804.78755,6.5744163 727.83866,11.792016 650.8021,16.038817 573.70845,18.293167 Z M 187.48773,12.536331 c -0.36063,-0.4641 -0.73248,-0.925552 -1.09863,-1.391602 -5.149,-4.7640572 -10.60171,-8.3982032 -16.31836,-11.14746128 H 305.9057 C 283.65327,2.6576504 261.30019,4.4835167 238.93305,5.9445335 221.722,7.6122335 204.58893,9.980255 187.48773,12.536331 Z" /><path
       id="path2"
       style="fill:#ffffff;fill-opacity:1;fill-rule:evenodd;stroke:none"
       transform="matrix(0.13333333,0,0,-0.13333333,0,257.33333)"
       d="M 184.73383,1276.0666 V 667.87814 H 1742.8296 v 51.43067 c -0.3541,1.27021 -0.6898,2.54169 -1.0108,3.82324 -2.0708,8.39033 -2.6557,17.03287 -3.0322,25.63477 -0.1982,6.21022 -0.2839,12.43438 -0.3369,18.64746 -0.2779,0.63562 -0.586,1.32838 -0.9229,2.09473 -3.727,8.83627 -5.9628,18.12775 -7.3974,27.583 -1.0764,7.3485 -1.3134,14.77841 -1.4942,22.19239 -0.1292,1.35547 -0.2222,2.49228 -0.2929,3.44238 -0.4743,0.92888 -1.2175,2.86775 -2.3145,6.35742 -2.8459,8.96303 -4.6949,18.1584 -5.9473,27.46582 -0.9365,8.11065 -1.1921,16.26397 -1.3916,24.41895 -0.1282,5.7609 -0.1679,11.52298 -0.1904,17.28516 -0.024,5.89042 -0.026,11.79024 -0.029,17.68066 0,6.16418 6e-4,12.32223 0,18.48633 -4e-4,5.94472 0,11.88235 0,17.82715 -10e-5,5.30572 0,10.61712 0,15.92285 0,5.80478 2e-4,11.61222 0,17.41699 v 19.32129 19.79 23.2471 c -0.8614,13.7703 1.5629,27.1967 5.4492,40.3565 1.7591,4.8647 2.7253,9.9307 3.3545,15.0439 0.5299,4.7906 0.7571,9.6261 0.8936,14.4434 -0.7839,12.3021 4.9069,22.6964 9.5215,33.4277 v 0.015 h -0.015 l -0.015,0.015 v 0.015 c -0.065,0.1769 -0.085,0.8124 0.029,2.168 0.4298,4.5929 0.4598,9.2048 0.5273,13.8135 -0.6046,8.9125 1.723,18.3507 4.6143,26.543 v 82.2802 z M 1738.0102,777.72678 v -0.0146 c -0.03,-0.24795 0.09,-1.74786 0.5274,-5.28809 -0.019,2.33123 -0.3636,4.93549 -0.4834,5.27344 l -0.015,0.0146 v 0.0146 h -0.015 z" /><path
       id="path3"
       d="M 220.414,1240.35 H 1707.14 V 703.602 H 220.414 v 536.748 0"
       style="fill:#0e467b;fill-opacity:1;fill-rule:evenodd;stroke:none"
       transform="matrix(0.13333333,0,0,-0.13333333,0,257.33333)" /><path
       id="path4"
       d="M 213.09,894.977 H 1717.42 V 883.402 H 213.09 v 11.575 0"
       style="fill:#ffffff;fill-opacity:1;fill-rule:evenodd;stroke:none"
       transform="matrix(0.13333333,0,0,-0.13333333,0,257.33333)" /><path
       id="path5"
       d="m 660.629,1026.34 c -30.512,0 -47.039,-16.81 -47.039,-47.906 0,-31.075 16.527,-48.043 47.039,-48.043 30.516,0 47.039,17.105 47.039,48.043 0,30.956 -16.523,47.906 -47.039,47.906 z m 0,-17.62 c 16.527,0 25.535,-10.501 25.535,-30.286 0,-19.758 -9.008,-30.395 -25.535,-30.395 -16.535,0 -25.668,10.637 -25.668,30.395 0,19.785 9.133,30.286 25.668,30.286 v 0"
       style="fill:#ffffff;fill-opacity:1;fill-rule:evenodd;stroke:none"
       transform="matrix(0.13333333,0,0,-0.13333333,0,257.33333)" /><path
       id="path6"
       d="m 1475.73,1025.64 c -3.08,-0.8 -6.86,-0.94 -11.16,-0.94 h -53.93 c -3.63,0 -5.91,0 -6.98,-3.09 l -5.78,-16.95 c 6.3,1.75 11.83,2.42 15.86,2.42 h 12.11 v -57.713 c 0,-7.832 -0.94,-13.484 -3.76,-17.496 h 29.3 c -2.84,4.289 -3.9,9.934 -3.9,17.496 v 57.713 h 16.55 c 5.24,0 6.99,0 8.2,4.84 l 3.49,13.72 v 0"
       style="fill:#ffffff;fill-opacity:1;fill-rule:evenodd;stroke:none"
       transform="matrix(0.13333333,0,0,-0.13333333,0,257.33333)" /><path
       id="path7"
       d="m 1492.09,1024.66 c -0.84,0 -1.46,0 -1.58,0 -3.4,0 -4.38,-1.48 -5.46,-5.26 l -4.33,-14.92 c 6.82,2.83 12.15,4.03 18.82,4.03 0.48,0 1.09,0 1.72,0 2.29,0 3.9,0 8.28,0 h 8.84 l -45.42,-76.678 c 8.52,0.231 17.02,0.391 25.77,0.391 22.97,0 37.43,-0.942 43.27,-0.942 4.5,0 6.32,0.782 7.3,5.93 l 3.17,15.812 c -4.86,-2.707 -10.47,-4.921 -16.31,-4.921 -5.95,0 -13.85,0.523 -23.44,0.523 -2.44,0 -2.34,-0.117 -5.26,-0.277 l 44.5,76.312 h -59.87 v 0"
       style="fill:#ffffff;fill-opacity:1;fill-rule:evenodd;stroke:none"
       transform="matrix(0.13333333,0,0,-0.13333333,0,257.33333)" /><path
       id="path8"
       d="m 800.711,976.469 v 30.151 c -0.223,12.59 3.902,18.05 3.902,18.05 h -26.086 c -1.07,0 -2.015,0 -3.097,0 -2.68,0 -0.008,0 -2.692,0.54 -1.883,-6.05 -4.574,-11.83 -8.054,-17.89 8.589,2.02 9.804,2.83 14.105,2.83 0.129,0 0.238,0 0.348,0 l 0.078,-2.38 -0.055,-56.575 c 0,-10.441 -0.457,-13.523 -2.449,-18 -3.539,-7.832 -10.453,-15.074 -18.898,-19.519 4.769,-3.543 9.214,-5.379 13.363,-5.379 4.449,0 9.363,2.766 15.351,8.305 3.071,2.921 5.688,6.148 7.84,9.703 3.836,5.996 6.371,12.578 6.371,25.515 l -0.027,24.649 v 0"
       style="fill:#ffffff;fill-opacity:1;fill-rule:evenodd;stroke:none"
       transform="matrix(0.13333333,0,0,-0.13333333,0,257.33333)" /><path
       id="path9"
       d="m 1045.22,983.695 c 1.36,-0.136 2.02,-0.273 2.3,-0.273 h 3.62 c 11.44,0 17.2,5.117 17.2,13.465 0,8.203 -5.64,12.913 -16.39,12.913 -2.29,0 -4.57,-0.27 -6.73,-0.53 z m -19.93,26.125 c -3.89,-0.38 -8.77,-1.2 -14.67,-2.58 3.5,6.06 6.19,11.84 8.07,17.9 2.69,-0.55 5.24,-0.55 7.93,-0.55 h 3.09 16.76 c 2.72,0.08 5.51,0.14 8.31,0.14 22.04,0 33.06,-11.03 33.06,-27.98 0,-10.766 -4.71,-19.383 -13.18,-23.816 0,0 15.46,-36.196 32.97,-46.629 -9.3,-4.367 -32.13,6.539 -39.95,21.461 l -12.94,20.238 c -2.57,-0.262 -3.85,-0.316 -6.68,-0.316 h -2.84 v -18.442 c 0,-7.676 1.48,-13.598 4.05,-17.492 h -27.83 c 2.96,4.445 3.89,10.09 3.89,17.492 v 57.864 c 0,0.93 -0.02,1.83 -0.04,2.71 v 0"
       style="fill:#ffffff;fill-opacity:1;fill-rule:evenodd;stroke:none"
       transform="matrix(0.13333333,0,0,-0.13333333,0,257.33333)" /><path
       id="path10"
       d="m 1298.65,983.695 c 1.34,-0.136 2.03,-0.273 2.3,-0.273 h 3.62 c 11.42,0 17.2,5.117 17.2,13.465 0,8.203 -5.64,12.913 -16.38,12.913 -2.3,0 -4.58,-0.27 -6.74,-0.53 z m -19.95,26.125 c -3.87,-0.38 -8.75,-1.2 -14.65,-2.58 3.5,6.06 6.19,11.84 8.08,17.9 2.68,-0.55 5.23,-0.55 7.92,-0.55 h 3.09 16.76 c 2.72,0.08 5.49,0.14 8.31,0.14 22.03,0 33.06,-11.03 33.06,-27.98 0,-10.766 -4.71,-19.383 -13.18,-23.816 0,0 15.46,-36.196 32.97,-46.629 -9.3,-4.367 -34.17,6.539 -42.01,21.461 l -12.94,20.238 c -2.55,-0.262 -1.81,-0.316 -4.64,-0.316 h -2.82 v -18.442 c 0,-7.676 1.48,-13.598 4.03,-17.492 h -27.8 c 2.95,4.445 3.89,10.09 3.89,17.492 v 57.864 c 0,0.93 -0.03,1.83 -0.07,2.71 v 0"
       style="fill:#ffffff;fill-opacity:1;fill-rule:evenodd;stroke:none"
       transform="matrix(0.13333333,0,0,-0.13333333,0,257.33333)" /><path
       id="path11"
       d="m 302.965,1024.7 h 30.594 c 4.425,0 6.179,-0.53 6.449,-4.03 l -4.059,-14 c -3.629,1.62 -7.801,1.62 -12.636,1.62 h -16.282 v -19.782 h 20.453 c 3.094,0 5.914,0 8.739,0.805 l -3.571,-17.352 c -2.957,0.539 -5.777,0.676 -8.336,0.676 h -17.285 v -24.364 h 23.336 c 6.043,0 10.477,0.543 13.168,1.891 l -2.555,-12.805 c -1.082,-5.488 -1.753,-5.757 -8.066,-5.757 -4.973,0 -17.816,0.66 -31.527,0.66 -5.106,0 -11.418,-0.121 -18.817,-0.391 2.957,5.922 3.625,11.418 3.625,17.496 v 58.243 c 0,0.79 -0.011,1.55 -0.039,2.31 -3.867,-0.38 -8.73,-1.19 -14.601,-2.57 3.492,6.05 6.179,11.84 8.058,17.9 2.692,-0.55 5.246,-0.55 7.93,-0.55 h 3.098 12.324 v 0"
       style="fill:#ffffff;fill-opacity:1;fill-rule:evenodd;stroke:none"
       transform="matrix(0.13333333,0,0,-0.13333333,0,257.33333)" /><path
       id="path12"
       d="m 361.152,1024.7 h 24.063 c -7.797,-22.06 -10.613,-40.899 -10.613,-52.063 0,-17.078 6.98,-24.75 22.168,-24.75 8.468,0 15.46,2.277 19.632,6.035 v 53.028 c 0,7.4 -0.808,13.05 -3.906,17.75 h 29.172 c -3.23,-4.84 -3.629,-10.63 -3.629,-18.03 v -52.865 c 0,-9.426 2.149,-15.465 7.262,-18.586 l -21.778,-4.711 c -2.558,2.566 -4.168,4.441 -4.574,6.191 -8.066,-4.437 -16.535,-6.469 -26.207,-6.469 -26.484,0 -39.25,13.485 -39.25,41.196 0,14.664 3.125,27.777 4.613,38.304 -3.566,-0.43 -7.89,-1.2 -12.937,-2.38 3.488,6.05 6.18,11.84 8.051,17.9 2.695,-0.55 5.25,-0.55 7.933,-0.55 v 0"
       style="fill:#ffffff;fill-opacity:1;fill-rule:evenodd;stroke:none"
       transform="matrix(0.13333333,0,0,-0.13333333,0,257.33333)" /><path
       id="path13"
       d="m 599.926,1022.82 9.949,-7.26 c -9.41,-5.79 -18.547,-13.19 -27.012,-21.939 l -12.367,-12.641 13.711,-14.531 c 11.957,-12.644 24.871,-20.984 32.66,-23.672 -9.543,-7.558 -15.597,-12.113 -20.16,-12.113 -5.105,0 -13.707,7.399 -26.211,22.598 l -13.312,16.008 -4.7,-4.176 v -15.727 c 0,-7.562 1.086,-13.207 3.903,-17.496 h -28.633 c 2.953,4.438 3.898,10.086 3.898,17.496 v 57.713 c 0,0.97 -0.015,1.91 -0.058,2.84 -3.864,-0.38 -8.711,-1.2 -14.567,-2.57 3.496,6.05 6.192,11.84 8.067,17.9 2.687,-0.55 5.246,-0.55 7.929,-0.55 h 3.098 12.324 7.942 c -2.817,-4.03 -3.903,-9.95 -3.903,-17.62 v -23.685 l 17.071,19.915 c 12.101,14.12 19.488,21.53 24.863,21.53 1.746,0 3.633,-0.67 5.508,-2.02 v 0"
       style="fill:#ffffff;fill-opacity:1;fill-rule:evenodd;stroke:none"
       transform="matrix(0.13333333,0,0,-0.13333333,0,257.33333)" /><path
       id="path14"
       d="m 923.844,1024.7 h 23.863 c -7.805,-22.06 -10.629,-40.899 -10.629,-52.063 0,-17.078 6.996,-24.75 22.188,-24.75 8.464,0 15.453,2.277 19.617,6.035 v 53.028 c 0,7.4 -0.797,13.05 -3.891,17.75 h 29.168 c -3.23,-4.84 -3.64,-10.63 -3.64,-18.03 v -52.865 c 0,-9.426 2.16,-15.465 7.26,-18.586 l -21.776,-4.711 c -2.551,2.566 -4.168,4.441 -4.563,6.191 -8.066,-4.437 -16.535,-6.469 -26.214,-6.469 -26.477,0 -39.247,13.485 -39.247,41.196 0,14.66 3.114,27.754 4.61,38.284 -3.535,-0.43 -7.774,-1.19 -12.742,-2.36 3.496,6.05 6.179,11.84 8.07,17.9 2.687,-0.55 5.246,-0.55 7.926,-0.55 v 0"
       style="fill:#ffffff;fill-opacity:1;fill-rule:evenodd;stroke:none"
       transform="matrix(0.13333333,0,0,-0.13333333,0,257.33333)" /><path
       id="path15"
       d="m 1139.25,1023.14 c -3.07,-6.83 -3.3,-12.45 -3.3,-17.72 v -3.1 -53.695 h 18.58 c 3.08,0 7.77,1.559 13.06,4.031 l -2.73,-16.269 c -0.8,-4.434 -2.82,-5.106 -7.25,-5.106 -8.47,0 -18.71,1.055 -34.04,1.055 -4.16,0 -8.47,-0.273 -12.63,-0.383 2.96,4.828 3.63,9.266 3.63,14.25 v 56.117 3.1 c 0,1.46 -0.01,2.96 -0.11,4.49 -3.83,-0.38 -8.68,-1.2 -14.5,-2.56 3.5,6.05 6.19,11.84 8.08,17.9 2.68,-0.55 5.24,-0.55 7.92,-0.55 h 3.09 22.32 l -2.12,-1.56 v 0"
       style="fill:#ffffff;fill-opacity:1;fill-rule:evenodd;stroke:none"
       transform="matrix(0.13333333,0,0,-0.13333333,0,257.33333)" /><path
       id="path16"
       d="m 512.551,1021.5 c -3.11,2.54 -11.985,4.42 -23.332,4.42 -21.223,0 -34.422,-12.23 -34.422,-25.959 0,-25.625 38.648,-28.594 38.648,-42.453 0,-5.125 -5.074,-10.035 -13.672,-10.035 -9.351,0 -19.25,2.906 -26.191,9.445 l -1.602,-17.102 c 0,-0.152 0,-0.273 0,-0.421 0,-5.653 10.977,-9.004 27.297,-9.004 23.594,0 37.051,13.148 36.942,28.347 -0.141,20.707 -12.172,22.407 -26.356,30.668 -8.824,5.137 -14.867,8.383 -13.859,13.824 0.781,4.23 3.875,6.68 10.84,6.68 5.847,0 13.808,-0.85 20.687,-4.76 l 5.02,16.35 v 0"
       style="fill:#ffffff;fill-opacity:1;fill-rule:evenodd;stroke:none"
       transform="matrix(0.13333333,0,0,-0.13333333,0,257.33333)" /><path
       id="path17"
       d="m 1362.91,1024.67 c 2.82,-4.3 3.89,-10.08 3.89,-17.63 v -57.716 c 0,-7.519 -1.07,-13.207 -3.89,-17.492 h 29.31 c -2.83,4.168 -3.92,9.816 -3.92,17.492 v 57.716 c 0,7.67 1.09,13.45 3.92,17.63 h -29.31 v 0"
       style="fill:#ffffff;fill-opacity:1;fill-rule:evenodd;stroke:none"
       transform="matrix(0.13333333,0,0,-0.13333333,0,257.33333)" /><path
       id="path18"
       d="m 881.887,957.508 c 0.789,-6.426 1.922,-15.199 -0.637,-25.594 h 24.461 c -1.356,38.34 -11.832,70.776 -28.633,92.836 h -30.785 -3.09 c -2.683,0 -5.234,0 -7.93,0.54 -1.878,-6.05 -4.562,-11.84 -8.058,-17.9 8.601,2.02 15.051,2.83 19.359,2.83 h 2.281 c -20.296,-22.47 -30.789,-48.165 -30.789,-76.165 v -2.141 h 23.258 c -2.074,11.215 -0.769,19.668 0.77,26.449 l 20.332,-10.285 z m -15.258,52.402 c -11.707,-13.492 -18.102,-30.887 -19.902,-35.789 l 15.886,-8.18 16.727,8.356 c 0,0 -3.434,21.754 -12.711,35.613 v 0"
       style="fill:#ffffff;fill-opacity:1;fill-rule:evenodd;stroke:none"
       transform="matrix(0.13333333,0,0,-0.13333333,0,257.33333)" /><path
       id="path19"
       d="m 1237.74,957.508 c 0.8,-6.426 1.93,-15.199 -0.64,-25.594 h 24.46 c -1.34,38.34 -11.81,70.776 -28.62,92.836 h -30.77 -3.1 c -2.68,0 -5.25,0 -7.94,0.54 -1.86,-6.05 -4.57,-11.84 -8.05,-17.9 8.6,2.02 15.04,2.83 19.34,2.83 h 2.29 c -20.29,-22.47 -30.78,-48.165 -30.78,-76.165 v -2.141 h 23.26 c -2.09,11.215 -0.78,19.668 0.77,26.449 l 20.34,-10.285 z m -15.24,52.402 c -11.71,-13.492 -18.11,-30.887 -19.9,-35.789 l 15.88,-8.18 16.71,8.356 c 0,0 -3.42,21.754 -12.69,35.613 v 0"
       style="fill:#ffffff;fill-opacity:1;fill-rule:evenodd;stroke:none"
       transform="matrix(0.13333333,0,0,-0.13333333,0,257.33333)" /><path
       id="path20"
       d="m 1622.77,957.508 c 0.79,-6.426 1.92,-15.199 -0.65,-25.594 h 24.46 c -1.34,38.34 -11.83,70.776 -28.62,92.836 h -30.79 -3.09 c -2.69,0 -5.24,0 -7.92,0.54 -1.89,-6.05 -4.58,-11.84 -8.08,-17.9 8.6,2.02 15.06,2.83 19.37,2.83 h 2.27 c -20.29,-22.47 -30.77,-48.165 -30.77,-76.165 v -2.141 h 23.26 c -2.09,11.215 -0.78,19.668 0.75,26.449 l 20.34,-10.285 z m -15.26,52.402 c -11.72,-13.492 -18.1,-30.887 -19.91,-35.789 l 15.9,-8.18 16.71,8.356 c 0,0 -3.42,21.754 -12.7,35.613 v 0"
       style="fill:#ffffff;fill-opacity:1;fill-rule:evenodd;stroke:none"
       transform="matrix(0.13333333,0,0,-0.13333333,0,257.33333)" /><path
       id="path21"
       d="m 1031.29,844.289 c -30.52,0 -47.06,-16.832 -47.06,-47.922 0,-31.051 16.54,-48.039 47.06,-48.039 30.49,0 47.03,17.106 47.03,48.039 0,30.973 -16.54,47.922 -47.03,47.922 z m 0,-17.652 c 16.52,0 25.53,-10.477 25.53,-30.27 0,-19.754 -9.01,-30.39 -25.53,-30.39 -16.55,0 -25.69,10.636 -25.69,30.39 0,19.793 9.14,30.27 25.69,30.27 v 0"
       style="fill:#ffffff;fill-opacity:1;fill-rule:evenodd;stroke:none"
       transform="matrix(0.13333333,0,0,-0.13333333,0,257.33333)" /><path
       id="path22"
       d="m 478.484,844.289 c -30.515,0 -47.039,-16.832 -47.039,-47.922 0,-31.051 16.524,-48.039 47.039,-48.039 30.516,0 47.051,17.106 47.051,48.039 0,30.973 -16.535,47.922 -47.051,47.922 z m 0,-17.652 c 16.536,0 25.543,-10.477 25.543,-30.27 0,-19.754 -9.007,-30.39 -25.543,-30.39 -16.527,0 -25.668,10.636 -25.668,30.39 0,19.793 9.141,30.27 25.668,30.27 v 0"
       style="fill:#ffffff;fill-opacity:1;fill-rule:evenodd;stroke:none"
       transform="matrix(0.13333333,0,0,-0.13333333,0,257.33333)" /><path
       id="path23"
       d="m 1396.4,835.207 c 0.45,1.484 0.74,2.574 0.74,2.848 0,3.465 -10.23,6.429 -24.46,6.429 -21.23,0 -34.43,-12.23 -34.43,-25.949 0,-25.64 38.65,-28.597 38.65,-42.465 0,-5.105 -5.08,-10.015 -13.68,-10.015 -9.36,0 -19.25,2.886 -26.19,9.468 l -1.6,-17.14 c 0,-0.117 0,-0.27 0,-0.391 0,-5.648 10.98,-9.043 27.3,-9.043 23.59,0 37.06,13.172 36.94,28.364 -0.13,20.73 -12.16,22.402 -26.35,30.664 -8.84,5.14 -14.87,8.375 -13.87,13.832 0.78,4.246 3.87,6.66 10.85,6.66 6.38,0 15.28,-0.973 22.54,-5.918 l 3.56,12.656 v 0"
       style="fill:#ffffff;fill-opacity:1;fill-rule:evenodd;stroke:none"
       transform="matrix(0.13333333,0,0,-0.13333333,0,257.33333)" /><path
       id="path24"
       d="m 1167.9,842.809 h -23.16 c -1.07,0 -2.03,0 -3.09,0 -2.69,0 -5.24,0 -7.94,0.543 -1.87,-6.079 -4.56,-11.84 -8.06,-17.918 8.6,2.023 15.06,2.843 19.37,2.843 l 0.38,-0.156 c 5.41,-31.441 37.42,-79.793 37.42,-79.793 h 3.64 l 39.33,79.012 c 3.51,6.703 7.01,11.961 10.22,15.469 h -27.15 c 0,-2.024 -0.66,-4.446 -2,-7.403 l -20.81,-50.883 c -28.6,46.637 -18.15,58.286 -18.15,58.286 v 0"
       style="fill:#ffffff;fill-opacity:1;fill-rule:evenodd;stroke:none"
       transform="matrix(0.13333333,0,0,-0.13333333,0,257.33333)" /><path
       id="path25"
       d="m 1489.13,834.469 c 0.25,0.937 0.53,1.597 0.53,1.871 0,2.961 -13.31,7.949 -29.7,7.949 -28.76,0 -46.1,-18.703 -46.1,-48.309 0,-30.273 17.2,-47.652 46.89,-47.652 14.39,0 24.61,4.328 26.49,6.352 1.21,1.211 1.35,2.804 1.35,5.105 V 777 c -6.2,-6.309 -16,-10.203 -26.36,-10.203 -16.25,0 -26.73,10.598 -26.73,29.453 0,19.359 10.21,30.387 26.87,30.387 7.67,0 15.45,-2.684 21.91,-7.516 l 4.85,15.348 v 0"
       style="fill:#ffffff;fill-opacity:1;fill-rule:evenodd;stroke:none"
       transform="matrix(0.13333333,0,0,-0.13333333,0,257.33333)" /><path
       id="path26"
       d="m 1549.77,844.289 c -30.52,0 -47.04,-16.832 -47.04,-47.922 0,-31.051 16.52,-48.039 47.04,-48.039 30.51,0 47.03,17.106 47.03,48.039 0,30.973 -16.52,47.922 -47.03,47.922 z m 0,-17.652 c 16.53,0 25.53,-10.477 25.53,-30.27 0,-19.754 -9,-30.39 -25.53,-30.39 -16.52,0 -25.67,10.636 -25.67,30.39 0,19.793 9.15,30.27 25.67,30.27 v 0"
       style="fill:#ffffff;fill-opacity:1;fill-rule:evenodd;stroke:none"
       transform="matrix(0.13333333,0,0,-0.13333333,0,257.33333)" /><path
       id="path27"
       d="m 390.41,768.941 c -1.855,-1.484 -6.043,-2.574 -12.172,-2.574 -14.398,0 -24.375,11.574 -24.375,29.883 0,19.25 10.684,30.664 29.223,30.664 7.977,0 17.238,-2.805 23.23,-7.246 l 4.274,13.316 c 0.281,0.672 0.43,1.059 0.43,1.485 0,2.414 0,2.961 -3.426,4.445 -7.551,3.348 -16.961,5.375 -26.797,5.375 -30.641,0 -50.024,-18.703 -50.024,-47.648 0,-30.118 18.383,-48.313 48.883,-48.313 10.418,0 22.809,2.574 31.078,6.469 l 0.039,28.555 c -0.23,12.589 3.895,18.078 3.895,18.078 h -24.305 c -1.082,0 -2.015,0 -3.101,0 -2.68,0 -5.239,0 -7.922,0.508 -1.883,-6.036 -4.563,-11.844 -8.067,-17.883 8.598,2.031 15.059,2.843 19.36,2.843 0.117,0 0.226,0 0.344,0 l 0.074,-2.414 -0.028,-14.57 -0.613,-0.973 v 0"
       style="fill:#ffffff;fill-opacity:1;fill-rule:evenodd;stroke:none"
       transform="matrix(0.13333333,0,0,-0.13333333,0,257.33333)" /><path
       id="path28"
       d="m 571.16,805.797 c 2.422,-0.274 7.594,-0.391 8.145,-0.391 10.75,0 16.121,3.742 16.121,11.844 0,6.859 -4.699,11.297 -12.496,11.297 -3.094,0 -9.086,-0.66 -11.77,-2.297 z m 0,-40.211 c 2.547,-0.426 8.403,-0.543 10.289,-0.543 9.949,0 15.864,5.109 15.864,13.715 0,8.609 -5.52,13.715 -15.598,13.715 -2.277,0 -8.133,-0.118 -10.555,-0.278 z M 551,829.059 c -4.094,-0.321 -9.465,-1.133 -16.117,-2.696 3.496,6.043 6.191,11.848 8.066,17.887 2.688,-0.551 5.25,-0.551 7.93,-0.551 h 3.098 12.316 1.793 c 2.816,0.082 14.977,0.043 21.969,0.043 15.324,0 25.406,-9.972 25.406,-23.414 0,-9 -3.902,-16.129 -11.027,-20.301 9.132,-4.32 13.976,-12.113 13.976,-21.66 0,-17.492 -13.031,-28.676 -38.301,-28.676 -6.324,0 -16.746,0.661 -24.004,0.661 -1.48,0 -4.3,-0.114 -8.468,-0.391 2.554,5.109 3.363,9.824 3.363,15.082 v 64.016 0"
       style="fill:#ffffff;fill-opacity:1;fill-rule:evenodd;stroke:none"
       transform="matrix(0.13333333,0,0,-0.13333333,0,257.33333)" /><path
       id="path29"
       d="m 891.707,842.809 h 6.16 l 45.02,-62.18 v 44.535 c 0,7.668 -1.207,13.59 -3.891,17.645 h 28.227 c -2.957,-4.598 -3.903,-10.246 -3.903,-17.645 V 763.02 c 0,-4.598 0.399,-9 1.071,-13.059 h -19.75 l -47.852,66.078 v -48.582 c 0,-7.129 0.809,-12.777 3.762,-17.496 h -28.227 c 2.961,4.445 3.906,10.094 3.906,17.496 v 57.707 c 0,1.051 -0.023,2.024 -0.054,2.996 -4.043,-0.312 -9.321,-1.172 -15.821,-2.687 3.497,6.039 6.18,11.84 8.067,17.879 2.687,-0.543 5.234,-0.543 7.93,-0.543 h 3.082 12.273 v 0"
       style="fill:#ffffff;fill-opacity:1;fill-rule:evenodd;stroke:none"
       transform="matrix(0.13333333,0,0,-0.13333333,0,257.33333)" /><path
       id="path30"
       d="m 716.313,842.809 h 30.593 c 4.434,0 6.176,-0.547 6.453,-4.055 l -4.062,-13.984 c -3.625,1.593 -7.789,1.593 -12.633,1.593 h -16.285 v -19.789 h 20.461 c 3.086,0 5.918,0 8.738,0.821 l -3.582,-17.336 c -2.953,0.504 -5.777,0.66 -8.336,0.66 h -17.281 v -24.352 h 23.336 c 6.051,0 10.48,0.551 13.172,1.871 l -2.559,-12.781 c -1.07,-5.527 -1.742,-5.766 -8.066,-5.766 -4.973,0 -17.817,0.661 -31.528,0.661 -5.109,0 -11.418,-0.153 -18.816,-0.422 2.957,5.922 3.629,11.449 3.629,17.488 v 58.285 c 0,0.781 -0.012,1.563 -0.039,2.301 -3.875,-0.391 -8.738,-1.207 -14.606,-2.57 3.496,6.039 6.18,11.839 8.063,17.879 2.691,-0.504 5.238,-0.504 7.933,-0.504 h 3.082 12.333 v 0"
       style="fill:#ffffff;fill-opacity:1;fill-rule:evenodd;stroke:none"
       transform="matrix(0.13333333,0,0,-0.13333333,0,257.33333)" /><path
       id="path31"
       d="m 640.953,842.77 c 2.82,-4.329 3.899,-10.094 3.899,-17.606 v -57.746 c 0,-7.52 -1.079,-13.168 -3.899,-17.488 h 29.297 c -2.82,4.164 -3.895,9.816 -3.895,17.488 v 57.746 c 0,7.629 1.075,13.438 3.895,17.606 h -29.297 v 0"
       style="fill:#ffffff;fill-opacity:1;fill-rule:evenodd;stroke:none"
       transform="matrix(0.13333333,0,0,-0.13333333,0,257.33333)" /><path
       id="path32"
       d="m 800.84,801.668 c 1.34,-0.121 2.012,-0.27 2.285,-0.27 h 3.629 c 11.422,0 17.199,5.098 17.199,13.477 0,8.18 -5.64,12.895 -16.402,12.895 -2.278,0 -4.563,-0.274 -6.711,-0.543 z m -19.953,26.141 c -3.867,-0.391 -8.762,-1.211 -14.657,-2.614 3.504,6.078 6.184,11.848 8.067,17.926 2.695,-0.551 5.242,-0.551 7.926,-0.551 h 3.097 16.75 c 2.735,0.078 5.504,0.118 8.309,0.118 22.043,0 33.07,-11.024 33.07,-27.969 0,-10.758 -4.711,-19.364 -13.179,-23.809 0,0 15.457,-36.191 32.96,-46.629 -9.289,-4.363 -34.175,6.543 -42.011,21.465 l -12.938,20.219 c -2.562,-0.231 -1.801,-0.313 -4.621,-0.313 h -2.82 v -18.425 c 0,-7.68 1.476,-13.598 4.027,-17.493 h -27.82 c 2.961,4.442 3.891,10.09 3.891,17.493 v 57.855 c 0,0.934 -0.008,1.832 -0.051,2.727 v 0"
       style="fill:#ffffff;fill-opacity:1;fill-rule:evenodd;stroke:none"
       transform="matrix(0.13333333,0,0,-0.13333333,0,257.33333)" /><path
       id="path33"
       d="m 1298.34,775.488 c 0.8,-6.468 1.93,-15.199 -0.64,-25.601 h 24.46 c -1.34,38.34 -11.83,70.75 -28.62,92.843 h -30.8 -3.07 c -2.7,0 -5.25,0 -7.94,0.508 -1.89,-6.039 -4.57,-11.843 -8.05,-17.886 8.6,2.027 15.04,2.847 19.34,2.847 h 2.3 c -20.3,-22.48 -30.79,-48.195 -30.79,-76.168 v -2.144 h 23.26 c -2.09,11.179 -0.78,19.676 0.78,26.453 l 20.31,-10.324 z m -15.24,52.399 c -11.71,-13.52 -18.11,-30.895 -19.9,-35.805 l 15.87,-8.18 16.72,8.332 c 0,0 -3.42,21.782 -12.69,35.653 v 0"
       style="fill:#ffffff;fill-opacity:1;fill-rule:evenodd;stroke:none"
       transform="matrix(0.13333333,0,0,-0.13333333,0,257.33333)" /><path
       id="path34"
       d="m 1232.33,1401.8 -3.52,0.1 v -139.42 l 3.52,0.05 c 3.08,5.7 8.74,6.24 14.97,7.58 -0.45,16.52 12,14.91 12,14.91 -4.01,20.55 9.81,39.18 9.81,39.18 -8.93,21.43 5.78,25.44 5.78,25.44 1.34,6.7 2.74,8.85 -1.73,10.65 3.13,7.58 -3.12,12.05 -6.68,11.15 3.12,11.16 -15.72,14.74 -17.06,9.83 -17.94,4.92 -17.09,20.53 -17.09,20.53 v 0"
       style="fill:#00a650;fill-opacity:1;fill-rule:evenodd;stroke:none"
       transform="matrix(0.13333333,0,0,-0.13333333,0,257.33333)" /><path
       id="path35"
       d="m 1232.96,1401.09 -3.53,0.1 v -139.35 l 3.53,0.05 c 3.07,5.69 8.74,6.24 14.97,7.58 -0.45,16.51 12.01,14.9 12.01,14.9 -4.01,20.54 9.81,39.16 9.81,39.16 -8.93,21.42 5.79,25.42 5.79,25.42 1.34,6.7 2.74,8.85 -1.73,10.65 3.13,7.58 -3.12,12.04 -6.68,11.14 3.11,11.16 -15.74,14.74 -17.07,9.83 -17.96,4.92 -17.1,20.52 -17.1,20.52 z"
       style="fill:none;stroke:#231f20;stroke-width:3.56043;stroke-linecap:butt;stroke-linejoin:miter;stroke-miterlimit:2.6131;stroke-dasharray:none;stroke-opacity:1"
       transform="matrix(0.13326573,0,0,-0.13340133,0,257.33333)" /><path
       id="path36"
       d="m 1232.33,1275.93 -3.52,0.05 v -61.01 l 3.52,0.01 c 32.01,-9.59 39.84,14.52 39.84,14.52 18.29,0.45 15.79,15.99 15.79,15.99 10.36,5.71 4.64,18.94 4.64,18.94 10.35,11.95 -5.37,23.05 -5.37,23.05 1.96,6.43 4.69,4.61 4.69,4.61 -1.4,2.54 -0.43,7.51 -0.43,7.51 l -10.51,-7.12 c -6.23,-2.5 -3.4,1.02 -3.4,1.02 -2.67,12.94 3.73,18.41 8.05,22.59 12.51,-8.04 18.64,1.35 18.64,1.35 22.19,-8.48 25.09,17.38 25.09,17.38 24.43,-2.5 20.94,22.06 20.94,22.06 16.45,3.62 18.04,18.78 6.25,20.7 -0.9,17.97 -21.95,7.71 -22.85,0.12 -19.89,14.92 -22.96,-10.16 -22.96,-10.16 -14.44,5.35 -30.14,-12.76 -27.85,-21.45 -14.18,-8.58 -4.82,-22.86 -4.82,-22.86 -14.98,-18.39 -7.79,-34.32 -7.79,-34.32 -21.74,0.85 -22.63,-13.88 -22.63,-13.88 -8.66,7.87 -15.32,0.9 -15.32,0.9 v 0"
       style="fill:#00a650;fill-opacity:1;fill-rule:evenodd;stroke:none"
       transform="matrix(0.13333333,0,0,-0.13333333,0,257.33333)" /><path
       id="path37"
       d="m 1232.96,1275.28 -3.53,0.05 v -60.97 l 3.53,0.01 c 32.02,-9.59 39.85,14.51 39.85,14.51 18.3,0.44 15.81,15.98 15.81,15.98 10.36,5.71 4.63,18.93 4.63,18.93 10.36,11.95 -5.37,23.04 -5.37,23.04 1.97,6.42 4.7,4.61 4.7,4.61 -1.41,2.53 -0.43,7.5 -0.43,7.5 l -10.52,-7.12 c -6.23,-2.49 -3.4,1.02 -3.4,1.02 -2.67,12.94 3.73,18.4 8.05,22.59 12.52,-8.04 18.65,1.34 18.65,1.34 22.21,-8.47 25.1,17.38 25.1,17.38 24.44,-2.5 20.96,22.04 20.96,22.04 16.45,3.62 18.04,18.78 6.24,20.69 -0.89,17.96 -21.96,7.71 -22.85,0.12 -19.91,14.92 -22.98,-10.16 -22.98,-10.16 -14.45,5.36 -30.15,-12.74 -27.86,-21.44 -14.19,-8.57 -4.83,-22.84 -4.83,-22.84 -14.98,-18.38 -7.78,-34.31 -7.78,-34.31 -21.76,0.85 -22.65,-13.86 -22.65,-13.86 -8.66,7.86 -15.32,0.89 -15.32,0.89 z"
       style="fill:none;stroke:#231f20;stroke-width:3.56043;stroke-linecap:butt;stroke-linejoin:miter;stroke-miterlimit:2.6131;stroke-dasharray:none;stroke-opacity:1"
       transform="matrix(0.13326573,0,0,-0.13340133,0,257.33333)" /><path
       id="path38"
       d="m 1030.23,1770.41 c -18.93,10.17 -10.8,23.42 -10.8,23.42 -21.496,4.01 -12.94,26.72 -12.94,26.72 -17.666,15.32 0,29.86 16.29,17.08 16.88,14.94 27.27,-14.33 27.27,-14.33 22.36,10.02 22.55,-22.98 22.55,-22.98 l 11.38,1.97 c 23.65,-5.34 7.07,-17.29 7.07,-17.29 6.77,-8.14 -2.55,-14.59 -2.55,-14.59 l 0.08,-4.1 h -56.84 l -1.51,4.1 v 0"
       style="fill:#00a650;fill-opacity:1;fill-rule:evenodd;stroke:none"
       transform="matrix(0.13333333,0,0,-0.13333333,0,257.33333)" /><path
       id="path39"
       d="m 1030.76,1769.51 c -18.95,10.17 -10.81,23.41 -10.81,23.41 -21.51,4.01 -12.95,26.7 -12.95,26.7 -17.674,15.32 0,29.85 16.3,17.08 16.88,14.93 27.28,-14.33 27.28,-14.33 22.37,10.02 22.56,-22.97 22.56,-22.97 l 11.39,1.97 c 23.66,-5.33 7.07,-17.27 7.07,-17.27 6.78,-8.14 -2.55,-14.59 -2.55,-14.59 l 0.08,-4.1 h -56.87 z"
       style="fill:none;stroke:#231f20;stroke-width:3.56043;stroke-linecap:butt;stroke-linejoin:miter;stroke-miterlimit:2.6131;stroke-dasharray:none;stroke-opacity:1"
       transform="matrix(0.13326573,0,0,-0.13340133,0,257.33333)" /><path
       id="path40"
       d="m 1111.64,1770.19 -2.67,7.96 c -5.78,27.72 25.57,24.55 25.57,24.55 l 13.74,-2.75 c 19.43,18.47 33.74,-3.92 33.74,-3.92 21,12.56 31,-15.62 32.78,-25.84 -0.2,0 -0.47,-3.88 -0.47,-3.88 h -102.79 l 0.1,3.88 v 0"
       style="fill:#00a650;fill-opacity:1;fill-rule:evenodd;stroke:none"
       transform="matrix(0.13333333,0,0,-0.13333333,0,257.33333)" /><path
       id="path41"
       d="m 1112.2,1769.29 -2.67,7.96 c -5.78,27.71 25.59,24.54 25.59,24.54 l 13.74,-2.75 c 19.44,18.46 33.76,-3.92 33.76,-3.92 21.01,12.55 31.02,-15.61 32.79,-25.83 -0.19,0 -0.46,-3.88 -0.46,-3.88 h -102.84 z"
       style="fill:none;stroke:#231f20;stroke-width:3.56043;stroke-linecap:butt;stroke-linejoin:miter;stroke-miterlimit:2.6131;stroke-dasharray:none;stroke-opacity:1"
       transform="matrix(0.13326573,0,0,-0.13340133,0,257.33333)" /><path
       id="path42"
       d="m 1104.07,1783.02 -1.79,-16.71 h -6.23 l 2.22,17.16 5.8,-0.45 v 0"
       style="fill:#00a650;fill-opacity:1;fill-rule:evenodd;stroke:none"
       transform="matrix(0.13333333,0,0,-0.13333333,0,257.33333)" /><path
       id="path43"
       d="m 1104.63,1782.12 -1.79,-16.71 h -6.23 l 2.21,17.16 z"
       style="fill:none;stroke:#231f20;stroke-width:3.56043;stroke-linecap:butt;stroke-linejoin:miter;stroke-miterlimit:2.6131;stroke-dasharray:none;stroke-opacity:1"
       transform="matrix(0.13326573,0,0,-0.13340133,0,257.33333)" /><path
       id="path44"
       d="m 1096.91,1783.32 5.31,-0.94 c 9.23,-1.9 18.14,16.37 18.14,16.37 l -5.14,1.29 1.95,7.82 c 3.93,17.22 -7.38,17.92 -7.38,17.92 -11.64,3.61 -15.24,-12.28 -15.24,-12.28 l -1.94,-7.82 -5.5,1.36 c -3.11,-20.02 9.8,-23.72 9.8,-23.72 v 0"
       style="fill:#cbbe54;fill-opacity:1;fill-rule:evenodd;stroke:none"
       transform="matrix(0.13333333,0,0,-0.13333333,0,257.33333)" /><path
       id="path45"
       d="m 1097.46,1782.41 5.32,-0.93 c 9.23,-1.91 18.15,16.36 18.15,16.36 l -5.15,1.28 1.95,7.82 c 3.94,17.21 -7.38,17.92 -7.38,17.92 -11.64,3.6 -15.24,-12.28 -15.24,-12.28 l -1.95,-7.81 -5.5,1.36 c -3.11,-20.01 9.8,-23.72 9.8,-23.72 z"
       style="fill:none;stroke:#231f20;stroke-width:3.56043;stroke-linecap:butt;stroke-linejoin:miter;stroke-miterlimit:2.6131;stroke-dasharray:none;stroke-opacity:1"
       transform="matrix(0.13326573,0,0,-0.13340133,0,257.33333)" /><path
       id="path46"
       d="m 1257.65,1491.49 c 0.22,-1.43 0.17,-2.31 0.17,-2.31 16.1,0 13.43,-11.61 13.43,-11.61 16.93,0.9 12.47,-19.53 12.47,-19.53 3.98,6.87 0,31.85 0,31.85 -3.56,-0.67 -6.46,0.15 -8.77,1.6 h 16.95 c -1.52,-16.05 -0.14,-31.67 -0.14,-31.67 3.14,-29.46 -11.6,-26.78 -11.6,-26.78 8.02,-8.93 -4.45,-17.85 -4.45,-17.85 -2.75,-3.53 -10.7,-10.72 -10.7,-10.72 -2.94,-8.84 9.76,-10.54 11.4,-11.02 3.72,10.75 3.27,20.12 18.91,32.45 -8.02,11.6 5.41,19.77 5.41,19.77 0,0 -11.89,16.63 -0.25,29.01 5.63,4.71 -0.25,10.02 -0.25,10.02 0,0 -0.29,2.89 0.33,6.76 l 72.49,0.03 c -3.41,-8.56 -11.37,-13.88 -11.37,-13.88 13.01,-12.87 -10.62,-25.82 -10.62,-25.82 6.24,-8.93 -0.9,-19.2 -19.17,-20.08 -7.65,-16.31 -30.05,-10.13 -30.05,-10.13 -25.49,-20.62 -12.12,-33.5 -12.12,-33.5 l 11.01,6.84 c 1.77,-2.65 3.1,-4.86 3.1,-4.86 -14.99,-11.47 -13.33,-20.83 -13.33,-20.83 -0.57,0.29 4.18,-1.98 4.07,-4.32 -5.73,-2.21 -7.93,-7.51 -7.93,-7.51 -8.96,34.82 -18.5,24.43 -26.54,36.81 -8.55,0 -22.03,5.17 -23,16.76 -1.85,3.53 -4.79,0.2 -4.79,0.2 l -3.5,0.07 v 80.25 h 28.84 v 0"
       style="fill:#00a650;fill-opacity:1;fill-rule:evenodd;stroke:none"
       transform="matrix(0.13333333,0,0,-0.13333333,0,257.33333)" /><path
       id="path47"
       d="m 1228.81,1491.49 v 16.83 l 3.54,0.02 c 20.49,-0.16 24.52,-11.88 25.3,-16.91 z m 46.14,0 c -5.08,3.19 -7.32,9.4 -7.32,9.4 -17.14,3.03 -21.17,22.94 -21.17,22.94 -8.08,-3.22 -14.15,3.93 -14.15,3.93 l -3.5,0.04 v 220.66 l 3.5,0.12 c 31.04,-1.27 29.5,-29.12 29.5,-29.12 13.74,-6.28 14.52,-14.14 14.52,-14.14 -4.94,-2.83 -6.87,-6.23 -7.77,-15.15 -5.35,-4.47 -6.24,-10.28 -6.24,-10.28 -25.71,-8.01 -7.57,-32.36 -7.55,-32.38 v 0 c -0.31,1.48 -0.57,2.88 -0.76,4.22 -3.97,26.88 16.76,21.66 16.76,21.66 -0.78,7.86 6.59,12.98 6.59,12.98 -0.58,19.44 14.52,21.66 14.52,21.66 16.95,-3.12 13.83,-13.39 10.43,-18.6 18.57,-2.38 5.51,-24.74 5.51,-24.74 8.81,-14.54 -4.57,-26.33 -4.57,-26.33 8.23,-19.82 -7.07,-27.09 -7.07,-27.09 4.71,-25.73 -21.97,-31.05 -21.97,-31.05 0.38,-28.27 7.06,-28.67 7.06,-28.67 1.6,7.75 8.72,9.97 10.49,15.86 -3.58,4.91 0.16,13.3 0.16,13.3 14.28,6.69 12.04,27.67 12.04,27.67 12.5,6.26 9.78,26.96 7.54,29.64 4.9,12.5 12.76,10.36 14.48,3.03 24.18,16.08 18.44,-12.19 15.27,-16.06 10.61,-19.64 -3.56,-25.44 -3.56,-25.44 4.14,-15.62 -11.54,-20.91 -11.54,-20.91 0,0 2.61,-10.78 -11.66,-12.13 -2.67,-5.36 -4.45,-11.6 -18.72,-4.91 -9.18,-7.5 -8.47,-21.43 -8.47,-21.43 -0.89,-21.42 1.74,-26.22 1.74,-26.22 l 11.19,12.96 c 5.8,-1.46 6.09,-5.11 6.09,-5.11 -5.32,-5.5 -11,-11.98 -11,-11.98 -1.77,-5.55 -2.82,-11.96 -3.42,-18.29 z m 25.61,0 c 1.14,7.05 5.37,17.39 20.1,19.3 -0.8,14.53 14.91,16.69 14.91,16.69 6.26,18.26 18.62,10.91 19.94,5.11 18.75,5.8 20.07,-13.84 13.84,-19.2 6.19,-8.4 6.04,-15.92 3.7,-21.86 z m -52.02,118.34 -11.29,-13.24 c 24.7,-12.35 26.47,-44.12 26.47,-44.12 11.37,-5.5 8.03,-3.27 8.03,-3.27 -6.86,14.14 -4.31,32.6 -4.31,32.6 -16.97,6.62 -19.48,19.34 -18.9,28.03 v 0"
       style="fill:#00a650;fill-opacity:1;fill-rule:evenodd;stroke:none"
       transform="matrix(0.13333333,0,0,-0.13333333,0,257.33333)" /><path
       id="path48"
       d="m 1255.41,1646.67 v 0 c -0.32,1.48 -0.57,2.88 -0.76,4.22 -3.97,26.87 16.76,21.65 16.76,21.65 -0.78,7.86 6.6,12.98 6.6,12.98 -0.59,19.42 14.53,21.65 14.53,21.65 16.95,-3.13 13.84,-13.39 10.43,-18.6 18.58,-2.37 5.51,-24.72 5.51,-24.72 8.82,-14.54 -4.57,-26.32 -4.57,-26.32 8.23,-19.81 -7.07,-27.08 -7.07,-27.08 4.71,-25.72 -21.98,-31.03 -21.98,-31.03 0.38,-28.26 7.06,-28.66 7.06,-28.66 1.6,7.75 8.73,9.96 10.5,15.85 -3.58,4.91 0.16,13.3 0.16,13.3 14.29,6.69 12.04,27.66 12.04,27.66 12.5,6.25 9.78,26.95 7.54,29.62 4.91,12.49 12.77,10.35 14.49,3.03 24.2,16.07 18.45,-12.18 15.28,-16.05 10.61,-19.63 -3.56,-25.43 -3.56,-25.43 4.14,-15.61 -11.55,-20.9 -11.55,-20.9 0,0 2.61,-10.78 -11.66,-12.12 -2.67,-5.36 -4.46,-11.6 -18.73,-4.91 -9.19,-7.5 -8.47,-21.42 -8.47,-21.42 -0.89,-21.41 1.73,-26.21 1.73,-26.21 l 11.2,12.96 c 5.8,-1.47 6.09,-5.11 6.09,-5.11 -5.32,-5.49 -11,-11.97 -11,-11.97 -6.24,-19.64 -3.56,-49.98 -3.56,-49.98 3.14,-29.44 -11.61,-26.77 -11.61,-26.77 8.03,-8.92 -4.45,-17.84 -4.45,-17.84 -2.75,-3.53 -10.71,-10.71 -10.71,-10.71 -2.94,-8.84 9.77,-10.54 11.41,-11.02 3.71,10.75 3.27,20.12 18.92,32.44 -8.02,11.6 5.41,19.76 5.41,19.76 0,0 -11.89,16.62 -0.25,28.99 5.63,4.72 -0.25,10.01 -0.25,10.01 0,0 -2.34,23.13 20.44,26.08 -0.8,14.53 14.92,16.69 14.92,16.69 6.26,18.25 18.63,10.91 19.95,5.1 18.75,5.81 20.08,-13.83 13.85,-19.18 15.16,-20.53 -7.68,-35.77 -7.68,-35.77 13.01,-12.86 -10.63,-25.81 -10.63,-25.81 6.25,-8.92 -0.89,-19.18 -19.17,-20.07 -7.66,-16.29 -30.07,-10.12 -30.07,-10.12 -25.5,-20.61 -12.13,-33.48 -12.13,-33.48 l 11.02,6.83 c 1.77,-2.64 3.1,-4.85 3.1,-4.85 -14.99,-11.47 -13.34,-20.83 -13.34,-20.83 -0.56,0.3 4.19,-1.97 4.07,-4.32 -5.72,-2.2 -7.92,-7.5 -7.92,-7.5 -8.98,34.81 -18.52,24.42 -26.56,36.79 -8.55,0 -22.04,5.17 -23.02,16.75 -1.85,3.53 -4.78,0.2 -4.78,0.2 l -3.51,0.07 v 97.04 l 3.55,0.01 c 26.1,-0.2 25.48,-19.14 25.48,-19.14 16.1,0 13.44,-11.6 13.44,-11.6 16.94,0.89 12.47,-19.53 12.47,-19.53 3.98,6.87 0,31.84 0,31.84 -11.38,-2.16 -16.09,10.99 -16.09,10.99 -17.16,3.03 -21.19,22.93 -21.19,22.93 -8.08,-3.22 -14.15,3.92 -14.15,3.92 l -3.51,0.05 v 220.55 l 3.51,0.11 c 31.05,-1.26 29.51,-29.1 29.51,-29.1 13.75,-6.27 14.53,-14.13 14.53,-14.13 -4.95,-2.83 -6.88,-6.23 -7.77,-15.15 -5.35,-4.47 -6.25,-10.27 -6.25,-10.27 -25.72,-8.01 -7.58,-32.34 -7.55,-32.37 z"
       style="fill:none;stroke:#231f20;stroke-width:3.56043;stroke-linecap:butt;stroke-linejoin:miter;stroke-miterlimit:2.6131;stroke-dasharray:none;stroke-opacity:1"
       transform="matrix(0.13326573,0,0,-0.13340133,0,257.33333)" /><path
       id="path49"
       d="m 1249.17,1609.01 -11.29,-13.22 c 24.71,-12.35 26.48,-44.11 26.48,-44.11 11.38,-5.49 8.04,-3.27 8.04,-3.27 -6.87,14.13 -4.32,32.59 -4.32,32.59 -16.98,6.61 -19.49,19.33 -18.91,28.01 z"
       style="fill:none;stroke:#231f20;stroke-width:3.56043;stroke-linecap:butt;stroke-linejoin:miter;stroke-miterlimit:2.6131;stroke-dasharray:none;stroke-opacity:1"
       transform="matrix(0.13326573,0,0,-0.13340133,0,257.33333)" /><path
       id="path50"
       d="m 1300.56,1524.57 4.07,-2.73 c 6.94,-5 21.11,6.87 21.11,6.87 l -3.81,2.98 4.51,5.77 c 9.64,12.85 0.51,17.61 0.51,17.61 -8.33,7.31 -17.21,-4.55 -17.21,-4.55 l -4.49,-5.78 -4.05,3.16 c -9.98,-15.46 -0.64,-23.33 -0.64,-23.33 v 0"
       style="fill:#cbbe54;fill-opacity:1;fill-rule:evenodd;stroke:none"
       transform="matrix(0.13333333,0,0,-0.13333333,0,257.33333)" /><path
       id="path51"
       d="m 1301.22,1523.8 4.07,-2.73 c 6.95,-4.99 21.12,6.86 21.12,6.86 l -3.81,2.98 4.51,5.77 c 9.65,12.85 0.51,17.61 0.51,17.61 -8.33,7.3 -17.21,-4.56 -17.21,-4.56 l -4.5,-5.77 -4.05,3.16 c -9.98,-15.45 -0.64,-23.32 -0.64,-23.32 z"
       style="fill:none;stroke:#231f20;stroke-width:3.56043;stroke-linecap:butt;stroke-linejoin:miter;stroke-miterlimit:2.6131;stroke-dasharray:none;stroke-opacity:1"
       transform="matrix(0.13326573,0,0,-0.13340133,0,257.33333)" /><path
       id="path52"
       d="m 1301.5,1393.81 2.68,-4.11 c 4.45,-7.31 22.12,-1.94 22.12,-1.94 l -2.33,4.23 6.4,3.56 c 13.88,8.06 7.32,16.02 7.32,16.02 -4.81,9.98 -17.59,2.52 -17.59,2.52 l -6.4,-3.55 -2.5,4.5 c -15.24,-10.34 -9.7,-21.23 -9.7,-21.23 v 0"
       style="fill:#cbbe54;fill-opacity:1;fill-rule:evenodd;stroke:none"
       transform="matrix(0.13333333,0,0,-0.13333333,0,257.33333)" /><path
       id="path53"
       d="m 1302.16,1393.1 2.68,-4.1 c 4.46,-7.31 22.14,-1.94 22.14,-1.94 l -2.34,4.22 6.41,3.56 c 13.88,8.06 7.32,16.01 7.32,16.01 -4.81,9.98 -17.6,2.52 -17.6,2.52 l -6.41,-3.54 -2.49,4.49 c -15.25,-10.33 -9.71,-21.22 -9.71,-21.22 z"
       style="fill:none;stroke:#231f20;stroke-width:3.56043;stroke-linecap:butt;stroke-linejoin:miter;stroke-miterlimit:2.6131;stroke-dasharray:none;stroke-opacity:1"
       transform="matrix(0.13326573,0,0,-0.13340133,0,257.33333)" /><path
       id="path54"
       d="m 1290.79,1295.32 1.11,-4.77 c 1.67,-8.41 20.12,-9.39 20.12,-9.39 l -0.76,4.77 7.24,1.15 c 15.79,2.81 12.36,12.53 12.36,12.53 -1.11,11.04 -15.68,8.41 -15.68,8.41 l -7.23,-1.14 -0.79,5.08 c -17.85,-4.51 -16.37,-16.64 -16.37,-16.64 v 0"
       style="fill:#cbbe54;fill-opacity:1;fill-rule:evenodd;stroke:none"
       transform="matrix(0.13333333,0,0,-0.13333333,0,257.33333)" /><path
       id="path55"
       d="m 1291.44,1294.67 1.11,-4.77 c 1.68,-8.41 20.13,-9.39 20.13,-9.39 l -0.75,4.77 7.24,1.15 c 15.79,2.81 12.36,12.53 12.36,12.53 -1.11,11.02 -15.69,8.4 -15.69,8.4 l -7.23,-1.15 -0.79,5.08 c -17.86,-4.5 -16.38,-16.62 -16.38,-16.62 z"
       style="fill:none;stroke:#231f20;stroke-width:3.56043;stroke-linecap:butt;stroke-linejoin:miter;stroke-miterlimit:2.6131;stroke-dasharray:none;stroke-opacity:1"
       transform="matrix(0.13326573,0,0,-0.13340133,0,257.33333)" /><path
       id="path56"
       d="m 695.227,1401.8 4.203,0.1 v -139.42 l -4.203,0.05 c -3.075,5.7 -8.727,6.24 -14.961,7.58 0.433,16.52 -12.012,14.91 -12.012,14.91 4.023,20.55 -9.793,39.18 -9.793,39.18 8.918,21.43 -5.805,25.44 -5.805,25.44 -1.332,6.7 -2.718,8.85 1.742,10.65 -3.125,7.58 3.114,12.05 6.688,11.15 -3.125,11.16 15.715,14.74 17.047,9.83 17.953,4.92 17.094,20.53 17.094,20.53 v 0"
       style="fill:#00a650;fill-opacity:1;fill-rule:evenodd;stroke:none"
       transform="matrix(0.13333333,0,0,-0.13333333,0,257.33333)" /><path
       id="path57"
       d="m 695.579,1401.09 4.205,0.1 v -139.35 l -4.205,0.05 c -3.076,5.69 -8.731,6.24 -14.968,7.58 0.433,16.51 -12.018,14.9 -12.018,14.9 4.025,20.54 -9.798,39.16 -9.798,39.16 8.922,21.42 -5.808,25.42 -5.808,25.42 -1.333,6.7 -2.72,8.85 1.743,10.65 -3.126,7.58 3.115,12.04 6.691,11.14 -3.126,11.16 15.723,14.74 17.056,9.83 17.962,4.92 17.102,20.52 17.102,20.52 z"
       style="fill:none;stroke:#231f20;stroke-width:3.56043;stroke-linecap:butt;stroke-linejoin:miter;stroke-miterlimit:2.6131;stroke-dasharray:none;stroke-opacity:1"
       transform="matrix(0.13326573,0,0,-0.13340133,0,257.33333)" /><path
       id="path58"
       d="m 695.227,1275.93 4.203,0.05 v -61.01 l -4.203,0.01 c -32.012,-9.59 -39.832,14.52 -39.832,14.52 -18.29,0.45 -15.801,15.99 -15.801,15.99 -10.352,5.71 -4.633,18.94 -4.633,18.94 -10.356,11.95 5.367,23.05 5.367,23.05 -1.961,6.43 -4.691,4.61 -4.691,4.61 1.402,2.54 0.441,7.51 0.441,7.51 l 10.492,-7.12 c 6.246,-2.5 3.41,1.02 3.41,1.02 2.676,12.94 -3.73,18.41 -8.066,22.59 -12.496,-8.04 -18.625,1.35 -18.625,1.35 -22.195,-8.48 -25.078,17.38 -25.078,17.38 -24.438,-2.5 -20.965,22.06 -20.965,22.06 -16.43,3.62 -18.031,18.78 -6.234,20.7 0.898,17.97 21.949,7.71 22.847,0.12 19.883,14.92 22.961,-10.16 22.961,-10.16 14.453,5.35 30.141,-12.76 27.848,-21.45 14.187,-8.58 4.816,-22.86 4.816,-22.86 14.985,-18.39 7.782,-34.32 7.782,-34.32 21.757,0.85 22.656,-13.88 22.656,-13.88 8.641,7.87 15.305,0.9 15.305,0.9 v 0"
       style="fill:#00a650;fill-opacity:1;fill-rule:evenodd;stroke:none"
       transform="matrix(0.13333333,0,0,-0.13333333,0,257.33333)" /><path
       id="path59"
       d="m 695.579,1275.28 4.205,0.05 v -60.97 l -4.205,0.01 c -32.028,-9.59 -39.852,14.51 -39.852,14.51 -18.298,0.44 -15.809,15.98 -15.809,15.98 -10.357,5.71 -4.635,18.93 -4.635,18.93 -10.361,11.95 5.37,23.04 5.37,23.04 -1.962,6.42 -4.694,4.61 -4.694,4.61 1.403,2.53 0.442,7.5 0.442,7.5 l 10.497,-7.12 c 6.249,-2.49 3.412,1.02 3.412,1.02 2.677,12.94 -3.732,18.4 -8.07,22.59 -12.503,-8.04 -18.635,1.34 -18.635,1.34 -22.206,-8.47 -25.091,17.38 -25.091,17.38 -24.45,-2.5 -20.975,22.04 -20.975,22.04 -16.438,3.62 -18.041,18.78 -6.238,20.69 0.899,17.96 21.961,7.71 22.86,0.12 19.892,14.92 22.972,-10.16 22.972,-10.16 14.461,5.36 30.156,-12.74 27.862,-21.44 14.195,-8.57 4.819,-22.84 4.819,-22.84 14.992,-18.38 7.785,-34.31 7.785,-34.31 21.769,0.85 22.668,-13.86 22.668,-13.86 8.645,7.86 15.312,0.89 15.312,0.89 z"
       style="fill:none;stroke:#231f20;stroke-width:3.56043;stroke-linecap:butt;stroke-linejoin:miter;stroke-miterlimit:2.6131;stroke-dasharray:none;stroke-opacity:1"
       transform="matrix(0.13326573,0,0,-0.13340133,0,257.33333)" /><path
       id="path60"
       d="m 897.328,1770.41 c 18.922,10.17 10.793,23.42 10.793,23.42 21.504,4.01 12.953,26.72 12.953,26.72 17.649,15.32 0,29.86 -16.285,17.08 -16.875,14.94 -27.277,-14.33 -27.277,-14.33 -22.371,10.02 -22.563,-22.98 -22.563,-22.98 l -11.375,1.97 c -23.636,-5.34 -7.066,-17.29 -7.066,-17.29 -6.766,-8.14 2.551,-14.59 2.551,-14.59 l -0.079,-4.1 h 56.84 l 1.508,4.1 v 0"
       style="fill:#00a650;fill-opacity:1;fill-rule:evenodd;stroke:none"
       transform="matrix(0.13333333,0,0,-0.13333333,0,257.33333)" /><path
       id="path61"
       d="m 897.783,1769.51 c 18.932,10.17 10.799,23.41 10.799,23.41 21.514,4.01 12.959,26.7 12.959,26.7 17.658,15.32 0,29.85 -16.293,17.08 -16.884,14.93 -27.291,-14.33 -27.291,-14.33 -22.383,10.02 -22.574,-22.97 -22.574,-22.97 l -11.381,1.97 c -23.649,-5.33 -7.07,-17.27 -7.07,-17.27 -6.769,-8.14 2.552,-14.59 2.552,-14.59 l -0.078,-4.1 h 56.869 z"
       style="fill:none;stroke:#231f20;stroke-width:3.56043;stroke-linecap:butt;stroke-linejoin:miter;stroke-miterlimit:2.6131;stroke-dasharray:none;stroke-opacity:1"
       transform="matrix(0.13326573,0,0,-0.13340133,0,257.33333)" /><path
       id="path62"
       d="m 815.922,1770.19 2.672,7.96 c 5.777,27.72 -25.574,24.55 -25.574,24.55 l -13.735,-2.75 c -19.433,18.47 -33.746,-3.92 -33.746,-3.92 -20.996,12.56 -31.004,-15.62 -32.766,-25.84 0.184,0 0.454,-3.88 0.454,-3.88 h 102.804 l -0.109,3.88 v 0"
       style="fill:#00a650;fill-opacity:1;fill-rule:evenodd;stroke:none"
       transform="matrix(0.13333333,0,0,-0.13333333,0,257.33333)" /><path
       id="path63"
       d="m 816.336,1769.29 2.673,7.96 c 5.78,27.71 -25.587,24.54 -25.587,24.54 l -13.742,-2.75 c -19.443,18.46 -33.763,-3.92 -33.763,-3.92 -21.007,12.55 -31.02,-15.61 -32.782,-25.83 0.184,0 0.453,-3.88 0.453,-3.88 h 102.857 z"
       style="fill:none;stroke:#231f20;stroke-width:3.56043;stroke-linecap:butt;stroke-linejoin:miter;stroke-miterlimit:2.6131;stroke-dasharray:none;stroke-opacity:1"
       transform="matrix(0.13326573,0,0,-0.13340133,0,257.33333)" /><path
       id="path64"
       d="m 823.496,1783.02 1.774,-16.71 h 6.25 l -2.223,17.16 -5.801,-0.45 v 0"
       style="fill:#00a650;fill-opacity:1;fill-rule:evenodd;stroke:none"
       transform="matrix(0.13333333,0,0,-0.13333333,0,257.33333)" /><path
       id="path65"
       d="m 823.914,1782.12 1.774,-16.71 h 6.253 l -2.224,17.16 z"
       style="fill:none;stroke:#231f20;stroke-width:3.25539;stroke-linecap:butt;stroke-linejoin:miter;stroke-miterlimit:2.6131;stroke-dasharray:none;stroke-opacity:1"
       transform="matrix(0.13326573,0,0,-0.13340133,0,257.33333)" /><path
       id="path66"
       d="m 830.66,1783.32 -5.308,-0.94 c -9.227,-1.9 -18.164,16.37 -18.164,16.37 l 5.16,1.29 -1.946,7.82 c -3.941,17.22 7.368,17.92 7.368,17.92 11.636,3.61 15.234,-12.28 15.234,-12.28 l 1.961,-7.82 5.484,1.36 c 3.114,-20.02 -9.789,-23.72 -9.789,-23.72 v 0"
       style="fill:#cbbe54;fill-opacity:1;fill-rule:evenodd;stroke:none"
       transform="matrix(0.13333333,0,0,-0.13333333,0,257.33333)" /><path
       id="path67"
       d="m 831.081,1782.41 -5.311,-0.93 c -9.231,-1.91 -18.173,16.36 -18.173,16.36 l 5.163,1.28 -1.947,7.82 c -3.943,17.21 7.371,17.92 7.371,17.92 11.643,3.6 15.242,-12.28 15.242,-12.28 l 1.962,-7.81 5.487,1.36 c 3.115,-20.01 -9.794,-23.72 -9.794,-23.72 z"
       style="fill:none;stroke:#231f20;stroke-width:3.56043;stroke-linecap:butt;stroke-linejoin:miter;stroke-miterlimit:2.6131;stroke-dasharray:none;stroke-opacity:1"
       transform="matrix(0.13326573,0,0,-0.13340133,0,257.33333)" /><path
       id="path68"
       d="m 554.516,1491.49 c 3.398,-8.56 11.367,-13.88 11.367,-13.88 -13.02,-12.87 10.617,-25.82 10.617,-25.82 -6.246,-8.93 0.895,-19.2 19.168,-20.08 7.66,-16.31 30.035,-10.13 30.035,-10.13 25.516,-20.62 12.133,-33.5 12.133,-33.5 l -11.012,6.84 c -1.769,-2.65 -3.094,-4.86 -3.094,-4.86 14.993,-11.47 13.321,-20.83 13.321,-20.83 0.582,0.29 -4.172,-1.98 -4.059,-4.32 5.731,-2.21 7.934,-7.51 7.934,-7.51 8.969,34.82 18.492,24.43 26.543,36.81 8.539,0 22.019,5.17 23.004,16.76 1.843,3.53 4.773,0.2 4.773,0.2 l 4.184,0.07 v 80.25 h -29.508 c -0.219,-1.43 -0.188,-2.31 -0.188,-2.31 -16.093,0 -13.418,-11.61 -13.418,-11.61 -16.937,0.9 -12.48,-19.53 -12.48,-19.53 -3.973,6.87 0,31.85 0,31.85 3.547,-0.67 6.453,0.15 8.769,1.6 H 635.66 c 1.516,-16.05 0.141,-31.67 0.141,-31.67 -3.141,-29.46 11.605,-26.78 11.605,-26.78 -8.027,-8.93 4.453,-17.85 4.453,-17.85 2.743,-3.53 10.7,-10.72 10.7,-10.72 2.945,-8.84 -9.766,-10.54 -11.399,-11.02 -3.715,10.75 -3.269,20.12 -18.93,32.45 8.028,11.6 -5.406,19.77 -5.406,19.77 0,0 11.891,16.63 0.262,29.01 -5.633,4.71 0.242,10.02 0.242,10.02 0,0 0.293,2.89 -0.328,6.76 l -72.484,0.03 v 0"
       style="fill:#00a650;fill-opacity:1;fill-rule:evenodd;stroke:none"
       transform="matrix(0.13333333,0,0,-0.13333333,0,257.33333)" /><path
       id="path69"
       d="m 627,1491.49 c -1.148,7.05 -5.383,17.39 -20.09,19.3 0.785,14.53 -14.918,16.69 -14.918,16.69 -6.277,18.26 -18.613,10.91 -19.945,5.11 -18.734,5.8 -20.074,-13.84 -13.828,-19.2 -6.207,-8.4 -6.047,-15.92 -3.703,-21.86 z m 25.605,0 c 5.094,3.19 7.313,9.4 7.313,9.4 17.152,3.03 21.195,22.94 21.195,22.94 8.071,-3.22 14.133,3.93 14.133,3.93 l 4.184,0.04 v 220.66 l -4.184,0.12 c -31.039,-1.27 -29.496,-29.12 -29.496,-29.12 -13.734,-6.28 -14.516,-14.14 -14.516,-14.14 4.946,-2.83 6.864,-6.23 7.754,-15.15 5.356,-4.47 6.239,-10.28 6.239,-10.28 25.73,-8.01 7.578,-32.36 7.574,-32.38 v 0 c 0.301,1.48 0.554,2.88 0.746,4.22 3.969,26.88 -16.754,21.66 -16.754,21.66 0.789,7.86 -6.598,12.98 -6.598,12.98 0.582,19.44 -14.527,21.66 -14.527,21.66 -16.941,-3.12 -13.816,-13.39 -10.418,-18.6 -18.555,-2.38 -5.504,-24.74 -5.504,-24.74 -8.82,-14.54 4.567,-26.33 4.567,-26.33 -8.231,-19.82 7.066,-27.09 7.066,-27.09 -4.711,-25.73 21.98,-31.05 21.98,-31.05 -0.402,-28.27 -7.07,-28.67 -7.07,-28.67 -1.59,7.75 -8.711,9.97 -10.488,15.86 3.578,4.91 -0.164,13.3 -0.164,13.3 -14.274,6.69 -12.039,27.67 -12.039,27.67 -12.485,6.26 -9.762,26.96 -7.539,29.64 -4.903,12.5 -12.766,10.36 -14.465,3.03 -24.199,16.08 -18.457,-12.19 -15.285,-16.06 -10.598,-19.64 3.57,-25.44 3.57,-25.44 -4.149,-15.62 11.539,-20.91 11.539,-20.91 0,0 -2.629,-10.78 11.648,-12.13 2.68,-5.36 4.457,-11.6 18.731,-4.91 9.172,-7.5 8.461,-21.43 8.461,-21.43 0.898,-21.42 -1.738,-26.22 -1.738,-26.22 l -11.192,12.96 c -5.801,-1.46 -6.074,-5.11 -6.074,-5.11 5.297,-5.5 10.976,-11.98 10.976,-11.98 1.774,-5.55 2.829,-11.96 3.43,-18.29 z m 46.825,0 v 16.83 l -4.223,0.02 c -20.492,-0.16 -24.508,-11.88 -25.285,-16.91 z m -20.407,118.34 11.278,-13.24 c -24.692,-12.35 -26.453,-44.12 -26.453,-44.12 -11.379,-5.5 -8.039,-3.27 -8.039,-3.27 6.871,14.14 4.324,32.6 4.324,32.6 16.969,6.62 19.472,19.34 18.89,28.03 v 0"
       style="fill:#00a650;fill-opacity:1;fill-rule:evenodd;stroke:none"
       transform="matrix(0.13333333,0,0,-0.13333333,0,257.33333)" /><path
       id="path70"
       d="m 673.142,1646.67 v 0 c 0.301,1.48 0.555,2.88 0.746,4.22 3.971,26.87 -16.762,21.65 -16.762,21.65 0.789,7.86 -6.601,12.98 -6.601,12.98 0.582,19.42 -14.535,21.65 -14.535,21.65 -16.95,-3.13 -13.823,-13.39 -10.423,-18.6 -18.564,-2.37 -5.507,-24.72 -5.507,-24.72 -8.824,-14.54 4.569,-26.32 4.569,-26.32 -8.235,-19.81 7.07,-27.08 7.07,-27.08 -4.713,-25.72 21.992,-31.03 21.992,-31.03 -0.403,-28.26 -7.074,-28.66 -7.074,-28.66 -1.591,7.75 -8.716,9.96 -10.494,15.85 3.58,4.91 -0.164,13.3 -0.164,13.3 -14.281,6.69 -12.045,27.66 -12.045,27.66 -12.491,6.25 -9.767,26.95 -7.543,29.62 -4.905,12.49 -12.772,10.35 -14.472,3.03 -24.212,16.07 -18.467,-12.18 -15.293,-16.05 -10.603,-19.63 3.572,-25.43 3.572,-25.43 -4.151,-15.61 11.545,-20.9 11.545,-20.9 0,0 -2.63,-10.78 11.654,-12.12 2.681,-5.36 4.46,-11.6 18.74,-4.91 9.177,-7.5 8.465,-21.42 8.465,-21.42 0.899,-21.41 -1.739,-26.21 -1.739,-26.21 l -11.197,12.96 c -5.803,-1.47 -6.077,-5.11 -6.077,-5.11 5.299,-5.49 10.982,-11.97 10.982,-11.97 6.249,-19.64 3.572,-49.98 3.572,-49.98 -3.142,-29.44 11.612,-26.77 11.612,-26.77 -8.032,-8.92 4.455,-17.84 4.455,-17.84 2.743,-3.53 10.705,-10.71 10.705,-10.71 2.946,-8.84 -9.771,-10.54 -11.405,-11.02 -3.716,10.75 -3.271,20.12 -18.939,32.44 8.031,11.6 -5.409,19.76 -5.409,19.76 0,0 11.897,16.62 0.262,28.99 -5.636,4.72 0.242,10.01 0.242,10.01 0,0 2.341,23.13 -20.428,26.08 0.785,14.53 -14.926,16.69 -14.926,16.69 -6.28,18.25 -18.622,10.91 -19.955,5.1 -18.744,5.81 -20.084,-13.83 -13.835,-19.18 -15.172,-20.53 7.668,-35.77 7.668,-35.77 -13.026,-12.86 10.622,-25.81 10.622,-25.81 -6.249,-8.92 0.895,-19.18 19.178,-20.07 7.664,-16.29 30.05,-10.12 30.05,-10.12 25.529,-20.61 12.139,-33.48 12.139,-33.48 l -11.017,6.83 c -1.77,-2.64 -3.095,-4.85 -3.095,-4.85 15,-11.47 13.327,-20.83 13.327,-20.83 0.582,0.3 -4.174,-1.97 -4.061,-4.32 5.734,-2.2 7.938,-7.5 7.938,-7.5 8.973,34.81 18.501,24.42 26.556,36.79 8.544,0 22.031,5.17 23.016,16.75 1.844,3.53 4.776,0.2 4.776,0.2 l 4.185,0.07 v 97.04 l -4.224,0.01 c -26.107,-0.2 -25.486,-19.14 -25.486,-19.14 -16.102,0 -13.425,-11.6 -13.425,-11.6 -16.946,0.89 -12.487,-19.53 -12.487,-19.53 -3.974,6.87 0,31.84 0,31.84 11.389,-2.16 16.091,10.99 16.091,10.99 17.161,3.03 21.206,22.93 21.206,22.93 8.074,-3.22 14.14,3.92 14.14,3.92 l 4.185,0.05 v 220.55 l -4.185,0.11 c -31.055,-1.26 -29.511,-29.1 -29.511,-29.1 -13.742,-6.27 -14.523,-14.13 -14.523,-14.13 4.947,-2.83 6.866,-6.23 7.757,-15.15 5.359,-4.47 6.242,-10.27 6.242,-10.27 25.743,-8.01 7.582,-32.34 7.578,-32.37 z"
       style="fill:none;stroke:#231f20;stroke-width:3.56043;stroke-linecap:butt;stroke-linejoin:miter;stroke-miterlimit:2.6131;stroke-dasharray:none;stroke-opacity:1"
       transform="matrix(0.13326573,0,0,-0.13340133,0,257.33333)" /><path
       id="path71"
       d="m 679.368,1609.01 11.283,-13.22 c -24.704,-12.35 -26.467,-44.11 -26.467,-44.11 -11.384,-5.49 -8.043,-3.27 -8.043,-3.27 6.875,14.13 4.327,32.59 4.327,32.59 16.977,6.61 19.482,19.33 18.9,28.01 z"
       style="fill:none;stroke:#231f20;stroke-width:3.56043;stroke-linecap:butt;stroke-linejoin:miter;stroke-miterlimit:2.6131;stroke-dasharray:none;stroke-opacity:1"
       transform="matrix(0.13326573,0,0,-0.13340133,0,257.33333)" /><path
       id="path72"
       d="m 627.008,1524.57 -4.07,-2.73 c -6.954,-5 -21.118,6.87 -21.118,6.87 l 3.801,2.98 -4.504,5.77 c -9.633,12.85 -0.496,17.61 -0.496,17.61 8.324,7.31 17.192,-4.55 17.192,-4.55 l 4.503,-5.78 4.051,3.16 c 9.985,-15.46 0.641,-23.33 0.641,-23.33 v 0"
       style="fill:#cbbe54;fill-opacity:1;fill-rule:evenodd;stroke:none"
       transform="matrix(0.13333333,0,0,-0.13333333,0,257.33333)" /><path
       id="path73"
       d="m 627.326,1523.8 -4.073,-2.73 c -6.956,-4.99 -21.128,6.86 -21.128,6.86 l 3.803,2.98 -4.506,5.77 c -9.638,12.85 -0.496,17.61 -0.496,17.61 8.328,7.3 17.2,-4.56 17.2,-4.56 l 4.506,-5.77 4.053,3.16 c 9.989,-15.45 0.641,-23.32 0.641,-23.32 z"
       style="fill:none;stroke:#231f20;stroke-width:3.56043;stroke-linecap:butt;stroke-linejoin:miter;stroke-miterlimit:2.6131;stroke-dasharray:none;stroke-opacity:1"
       transform="matrix(0.13326573,0,0,-0.13340133,0,257.33333)" /><path
       id="path74"
       d="m 626.051,1393.81 -2.668,-4.11 c -4.457,-7.31 -22.125,-1.94 -22.125,-1.94 l 2.34,4.23 -6.407,3.56 c -13.871,8.06 -7.328,16.02 -7.328,16.02 4.813,9.98 17.606,2.52 17.606,2.52 l 6.406,-3.55 2.492,4.5 c 15.215,-10.34 9.684,-21.23 9.684,-21.23 v 0"
       style="fill:#cbbe54;fill-opacity:1;fill-rule:evenodd;stroke:none"
       transform="matrix(0.13333333,0,0,-0.13333333,0,257.33333)" /><path
       id="path75"
       d="m 626.368,1393.1 -2.669,-4.1 c -4.459,-7.31 -22.136,-1.94 -22.136,-1.94 l 2.341,4.22 -6.41,3.56 c -13.878,8.06 -7.332,16.01 -7.332,16.01 4.815,9.98 17.615,2.52 17.615,2.52 l 6.409,-3.54 2.494,4.49 c 15.222,-10.33 9.688,-21.22 9.688,-21.22 z"
       style="fill:none;stroke:#231f20;stroke-width:3.56043;stroke-linecap:butt;stroke-linejoin:miter;stroke-miterlimit:2.6131;stroke-dasharray:none;stroke-opacity:1"
       transform="matrix(0.13326573,0,0,-0.13340133,0,257.33333)" /><path
       id="path76"
       d="m 636.781,1295.32 -1.113,-4.77 c -1.691,-8.41 -20.133,-9.39 -20.133,-9.39 l 0.762,4.77 -7.231,1.15 c -15.793,2.81 -12.363,12.53 -12.363,12.53 1.117,11.04 15.676,8.41 15.676,8.41 l 7.223,-1.14 0.808,5.08 c 17.852,-4.51 16.371,-16.64 16.371,-16.64 v 0"
       style="fill:#cbbe54;fill-opacity:1;fill-rule:evenodd;stroke:none"
       transform="matrix(0.13333333,0,0,-0.13333333,0,257.33333)" /><path
       id="path77"
       d="m 637.104,1294.67 -1.114,-4.77 c -1.692,-8.41 -20.143,-9.39 -20.143,-9.39 l 0.762,4.77 -7.234,1.15 c -15.801,2.81 -12.369,12.53 -12.369,12.53 1.117,11.02 15.683,8.4 15.683,8.4 l 7.227,-1.15 0.809,5.08 c 17.86,-4.5 16.379,-16.62 16.379,-16.62 z"
       style="fill:none;stroke:#231f20;stroke-width:3.56043;stroke-linecap:butt;stroke-linejoin:miter;stroke-miterlimit:2.6131;stroke-dasharray:none;stroke-opacity:1"
       transform="matrix(0.13326573,0,0,-0.13340133,0,257.33333)" /><path
       id="path78"
       d="m 767.379,1131.6 c 0,0 140.781,1.46 190.379,-50.39 l 6.058,-6.93 v 393.79 H 1228.81 V 1766.5 H 699.43 v -561.2 c 0,0 7.402,-64.93 67.949,-73.7 v 0"
       style="fill:#cbbe54;fill-opacity:1;fill-rule:evenodd;stroke:none"
       transform="matrix(0.13333333,0,0,-0.13333333,0,257.33333)" /><path
       id="path79"
       d="m 870.348,1322.93 c -4.102,-19.1 -26.399,-26.42 -26.399,-26.42 v -30.71 h -20.996 v 30.71 c -22.836,8.21 -26.805,26.42 -26.805,26.42 -4.109,-19.1 -26.277,-26.42 -26.277,-26.42 v -30.71 h -20.996 v 30.71 c -22.824,8.21 -26.793,26.42 -26.793,26.42 -11.598,48.22 18.895,88.21 18.895,88.21 18.554,31.43 36.371,0 36.371,0 10.14,-13.3 15.996,-27.39 18.84,-40.28 5.992,24.17 18.863,40.28 18.863,40.28 18.554,31.43 36.375,0 36.375,0 10.137,-13.3 15.441,-27.18 18.285,-40.07 6.019,24.02 18.269,40.07 18.269,40.07 18.547,31.43 36.375,0 36.375,0 30.864,-40.53 18.911,-88.21 18.911,-88.21 -4.094,-19.1 -26.399,-26.42 -26.399,-26.42 v -30.71 h -20.996 v 30.71 c -22.824,8.21 -25.523,26.42 -25.523,26.42 v 0"
       style="fill:#00a650;fill-opacity:1;fill-rule:evenodd;stroke:none"
       transform="matrix(0.13333333,0,0,-0.13333333,0,257.33333)" /><path
       id="path80"
       d="m 963.816,1269.41 c 0,0 -16.628,-16.47 -33.746,-3.61 0,0 -21.402,13.22 -44.59,0 0,0 -14.984,-13.93 -30.316,0 0,0 -22.48,12.49 -46.379,-1.44 0,0 -13.203,-11.06 -27.465,1.08 0,0 -22.129,12.51 -43.523,-0.71 0,0 -12.137,-10.36 -22.828,-3.68 l -15.539,8.86 v -64.61 c 0,0 7.402,-64.93 67.949,-73.7 0,0 140.781,1.46 190.379,-50.39 l 6.058,-6.93 v 195.13 0"
       style="fill:#215798;fill-opacity:1;fill-rule:evenodd;stroke:none"
       transform="matrix(0.13333333,0,0,-0.13333333,0,257.33333)" /><path
       id="path81"
       d="m 963.816,1212.99 c 0,0 -16.628,-16.47 -33.746,-3.61 0,0 -21.402,13.2 -44.59,0 0,0 -14.984,-13.93 -30.316,0 0,0 -22.48,12.49 -46.379,-1.43 0,0 -13.203,-11.07 -27.465,1.06 0,0 -22.129,12.5 -43.523,-0.71 0,0 -12.137,-10.35 -22.828,-3.67 l -15.539,8.92 v 24.94 l 15.539,-8.86 c 10.691,-6.69 22.828,3.66 22.828,3.66 21.394,13.22 43.523,0.73 43.523,0.73 14.262,-12.15 27.465,-1.08 27.465,-1.08 23.899,13.93 46.379,1.43 46.379,1.43 15.332,-13.93 30.316,0 30.316,0 23.188,13.21 44.59,0 44.59,0 17.118,-12.86 33.746,4.05 33.746,4.05 v -25.43 0"
       style="fill:#ffffff;fill-opacity:1;fill-rule:evenodd;stroke:none"
       transform="matrix(0.13333333,0,0,-0.13333333,0,257.33333)" /><path
       id="path82"
       d="m 708.016,1177.26 6.953,-4.05 c 10.691,-6.69 22.828,3.66 22.828,3.66 21.394,13.22 43.523,0.72 43.523,0.72 14.262,-12.14 27.465,-1.07 27.465,-1.07 23.899,13.93 46.379,1.42 46.379,1.42 15.332,-13.93 30.316,0 30.316,0 23.188,13.22 44.59,0 44.59,0 17.118,-12.85 33.746,4.06 33.746,4.06 v -25.44 c 0,0 -16.628,-16.47 -33.746,-3.61 0,0 -21.402,13.21 -44.59,0 0,0 -14.984,-13.93 -30.316,0 0,0 -22.48,12.5 -46.379,-1.43 0,0 -13.203,-11.07 -27.465,1.07 0,0 -22.129,12.5 -43.523,-0.71 0,0 -2.844,-2.49 -6.988,-4.24 -2.133,1.25 -7.004,4.75 -12.461,11.94 -4.313,5.75 -8.614,12.07 -10.332,17.68 v 0"
       style="fill:#ffffff;fill-opacity:1;fill-rule:evenodd;stroke:none"
       transform="matrix(0.13333333,0,0,-0.13333333,0,257.33333)" /><path
       id="path83"
       d="m 963.816,1074.28 -6.058,6.93 c -3.988,4.8 -15.473,13.42 -29.067,20.68 -13.679,6.25 -27.75,11.71 -48.171,16.88 3.089,1.64 4.96,2.75 4.96,2.75 23.188,13.21 44.59,0 44.59,0 17.118,-12.86 33.746,4.05 33.746,4.05 v -51.29 0"
       style="fill:#ffffff;fill-opacity:1;fill-rule:evenodd;stroke:none"
       transform="matrix(0.13333333,0,0,-0.13333333,0,257.33333)" /><path
       id="path84"
       d="m 812.816,1549.24 5.184,4.97 -1.242,1.97 3.84,17.39 2.679,0.18 1.594,29.82 -3.023,1.42 2.316,42.5 8.918,11.42 c 0,0 1.422,3.58 6.422,4.65 0,0 6.598,2.85 10.519,-3.58 0,0 5.887,0.54 6.786,-4.99 0,0 4.808,0.9 5.699,-5.53 0,0 6.785,0.36 4.992,-5.89 l -3.203,-4.29 c 0,0 -3.207,-2.14 -0.188,-5.19 l -1.066,-3.38 c 0,0 -1.426,-4.29 -8.379,-4.11 0,0 -4.992,0.54 -4.453,-4.83 l 3.555,-18.92 h -4.453 l 4.992,-43.57 2.504,-1.6 -1.262,-13.04 c 0,0 0.551,-2.32 -1.953,-3.21 l -13.387,-14.18 -1.781,0.71 -3.231,-3.31 -22.379,24.59 v 0"
       style="fill:#52a5e0;fill-opacity:1;fill-rule:evenodd;stroke:none"
       transform="matrix(0.13333333,0,0,-0.13333333,0,257.33333)" /><path
       id="path85"
       d="m 788.469,1639.47 v 16.77 h 6.316 v -6.17 h 7.434 v 6.17 h 6.824 v -27.5 l -7.5,-5.59 v -25.16 l 6.738,-7.94 v -37.41 h -83.574 l 0.012,37.41 5.414,7.94 v 25.16 l -7.5,5.59 v 27.5 h 6.812 v -6.17 h 7.434 v 6.17 h 6.316 v -17.65 h 9.856 v 29.58 h 8.82 v -6.19 h 7.93 v 6.19 h 8.812 v -28.7 h 9.856 v 0"
       style="fill:#8c5a2d;fill-opacity:1;fill-rule:evenodd;stroke:none"
       transform="matrix(0.13333333,0,0,-0.13333333,0,257.33333)" /><path
       id="path86"
       d="m 748.637,1618.4 h 9.515 v -13.94 h -9.515 v 13.94 0"
       style="fill:#52a5e0;fill-opacity:1;fill-rule:evenodd;stroke:none"
       transform="matrix(0.13333333,0,0,-0.13333333,0,257.33333)" /><path
       id="path87"
       d="m 773.273,1618.4 h 9.516 v -13.94 h -9.516 v 13.94 0"
       style="fill:#52a5e0;fill-opacity:1;fill-rule:evenodd;stroke:none"
       transform="matrix(0.13333333,0,0,-0.13333333,0,257.33333)" /><path
       id="path88"
       d="m 757.871,1552.64 v 17.09 c 0,4.84 3.922,8.76 8.758,8.76 4.832,0 8.75,-3.92 8.75,-8.76 v -17.09 h -17.508 v 0"
       style="fill:#52a5e0;fill-opacity:1;fill-rule:evenodd;stroke:none"
       transform="matrix(0.13333333,0,0,-0.13333333,0,257.33333)" /><path
       id="path89"
       d="m 847.379,1511.11 -37.715,41.53 h -85.969 l -24.265,-23 v -8.74 l 147.949,-9.79 v 0"
       style="fill:#ffffff;fill-opacity:1;fill-rule:evenodd;stroke:none"
       transform="matrix(0.13333333,0,0,-0.13333333,0,257.33333)" /><path
       id="path90"
       d="m 847.809,1510.34 -37.734,41.52 h -86.013 l -24.278,-22.99 v -8.74 z"
       style="fill:none;stroke:#706d6e;stroke-width:2.07409;stroke-linecap:butt;stroke-linejoin:miter;stroke-miterlimit:2.6131;stroke-dasharray:none;stroke-opacity:1"
       transform="matrix(0.13326573,0,0,-0.13340133,0,257.33333)" /><path
       id="path91"
       d="m 847.379,1511.11 -37.715,41.53 h -85.969 l -24.265,-23 v -8.74 l 147.949,-9.79 v 0"
       style="fill:#706d6e;fill-opacity:1;fill-rule:evenodd;stroke:none"
       transform="matrix(0.13333333,0,0,-0.13333333,0,257.33333)" /><path
       id="path92"
       d="m 936.707,1097.47 c -14.621,-25.71 -40.523,-29.88 -40.523,-29.88 -25.016,-1.01 -28.18,18.57 -28.18,18.57 -14.633,-14.64 -33.539,-13.93 -33.539,-13.93 -25.68,1.44 -22.117,22.86 -22.117,22.86 -14.266,-8.57 -25.676,-2.14 -25.676,-2.14 -11.426,9.28 -26.758,7.5 -26.758,7.5 -14.266,-0.71 -27.105,-6.2 -27.105,-6.2 -2.864,6.43 0,11.44 0,11.44 16.757,6.07 31.742,6.54 31.742,6.54 8.808,-1.41 19.621,-3.21 26.402,-6.42 8.91,-3.93 17.832,1.43 17.832,1.43 4.996,3.22 16.113,21.05 16.113,21.05 5.043,-0.55 8.575,-0.9 15.336,-2.05 -4.105,-6.62 -16.109,-17.4 -16.648,-26.69 -1.07,-5 2.133,-10.34 5.711,-12.85 7.5,-4.47 17.855,-0.89 23.898,3.4 4.993,3.92 13.203,10.23 19.977,30.42 5.496,-1.22 11.766,-2.74 17.183,-4.23 -4.75,-5.86 -15.058,-16.59 -12.007,-25.49 1.785,-6.24 10.871,-10 16.234,-10 10.184,-0.53 23.145,12.32 29.035,23.56 0,0 8.617,-4.25 13.09,-6.89 v 0"
       style="fill:#00a650;fill-opacity:1;fill-rule:evenodd;stroke:none"
       transform="matrix(0.13333333,0,0,-0.13333333,0,257.33333)" /><path
       id="path93"
       d="m 990.988,1097.47 c 14.632,-25.71 40.532,-29.88 40.532,-29.88 25.01,-1.01 28.18,18.57 28.18,18.57 14.63,-14.64 33.53,-13.93 33.53,-13.93 25.69,1.44 22.13,22.86 22.13,22.86 14.26,-8.57 25.66,-2.14 25.66,-2.14 11.43,9.28 26.76,7.5 26.76,7.5 14.27,-0.71 27.11,-6.2 27.11,-6.2 2.86,6.43 0,11.44 0,11.44 -16.76,6.07 -31.74,6.54 -31.74,6.54 -8.81,-1.41 -19.61,-3.21 -26.41,-6.42 -8.91,-3.93 -17.82,1.43 -17.82,1.43 -5.01,3.22 -16.12,21.05 -16.12,21.05 -5.06,-0.55 -10,-1.48 -15.35,-2.24 4.12,-6.61 16.13,-17.21 16.66,-26.5 1.07,-5 -2.13,-10.34 -5.7,-12.85 -7.52,-4.47 -17.87,-0.89 -23.9,3.4 -5,3.92 -13.21,10.23 -19.99,30.42 -5.49,-1.22 -11.75,-2.74 -17.18,-4.23 4.74,-5.86 15.06,-16.59 12,-25.49 -1.77,-6.24 -10.85,-10 -16.23,-10 -10.17,-0.53 -23.47,12.74 -29.34,23.99 0,0 -8.309,-4.68 -12.782,-7.32 v 0"
       style="fill:#00a650;fill-opacity:1;fill-rule:evenodd;stroke:none"
       transform="matrix(0.13333333,0,0,-0.13333333,0,257.33333)" /><path
       id="path94"
       d="m 963.816,1074.28 5.938,6.93 c 49.606,51.85 190.376,50.39 190.376,50.39 60.55,8.77 68.68,73.7 68.68,73.7 v 262.77 H 963.816 v -393.79 0"
       style="fill:#ed1c24;fill-opacity:1;fill-rule:evenodd;stroke:none"
       transform="matrix(0.13333333,0,0,-0.13333333,0,257.33333)" /><path
       id="path95"
       d="m 1010.38,1718.58 h 171.8 v -202.05 h -171.8 v 202.05 0"
       style="fill:#ffffff;fill-opacity:1;fill-rule:evenodd;stroke:none"
       transform="matrix(0.13333333,0,0,-0.13333333,0,257.33333)" /><path
       id="path96"
       d="m 1010.38,1718.58 h 171.8 v -202.05 h -171.8 v 202.05 0"
       style="fill:#c8c7c7;fill-opacity:1;fill-rule:evenodd;stroke:none"
       transform="matrix(0.13333333,0,0,-0.13333333,0,257.33333)" /><path
       id="path97"
       d="m 1081.12,1696.12 h 30.33 v -54.45 l 54.21,0.17 v -30.36 h -138.77 v 30.36 h 54.1 l 0.13,54.28 v 0"
       style="fill:#ffffff;fill-opacity:1;fill-rule:evenodd;stroke:none"
       transform="matrix(0.13333333,0,0,-0.13333333,0,257.33333)" /><path
       id="path98"
       d="m 1067.23,1581.24 h 59.57 c 19.27,4.65 15.34,25.35 15.34,25.35 22.84,21.43 0,38.93 0,38.93 3.2,30.35 -27.46,27.14 -27.46,27.14 -19.62,22.5 -37.82,0 -37.82,0 -30.68,-0.36 -26.75,-27.14 -26.75,-27.14 -22.11,-21.79 0,-37.15 0,-37.15 -0.36,-26.06 17.12,-27.13 17.12,-27.13 v 0"
       style="fill:#00a650;fill-opacity:1;fill-rule:evenodd;stroke:none"
       transform="matrix(0.13333333,0,0,-0.13333333,0,257.33333)" /><path
       id="path99"
       d="m 1084.34,1557.2 v 19.32 c 0,0 -1.62,3.54 -5.9,4.8 h 34.6 c 0,0 -5.35,-1.58 -4.99,-4.8 v -19.32 c 0,0 -0.19,-4.64 6.24,-8.57 h 67.89 v -32.1 h -171.8 v 32.1 h 68.31 c 0,0 5.47,2.5 5.65,8.57 v 0"
       style="fill:#8c5a2d;fill-opacity:1;fill-rule:evenodd;stroke:none"
       transform="matrix(0.13333333,0,0,-0.13333333,0,257.33333)" /><path
       id="path100"
       d="m 900.387,1641.4 -11.946,0.03 -0.023,-10.01 9.449,-0.74 c 7.844,-3.4 4.621,-11.07 4.621,-11.07 -5.011,-8.56 -14.086,0.38 -14.086,0.38 l -12.867,16.68 -1.621,-10.18 -9.809,0.01 21.403,-27.57 -16.969,-14.97 11.231,-0.03 -0.024,-10.16 16.262,11.93 8.008,-8.94 -14.848,-24.08 c -3.395,-6.78 4.984,-10.72 4.984,-10.72 l -14.679,-25.16 8.742,1.42 4.629,-8.94 17.168,28.9 -0.344,5.89 8.586,12.48 -0.031,-17.5 c 3.55,-8.57 10.332,-5.72 10.332,-5.72 l -0.051,-27.55 7.863,5.58 8.543,-6.75 0.063,34.58 -4.457,0.01 0.078,71.24 8.976,7.67 -8.902,7.5 -6.078,-6.05 -0.067,-40.9 -11.214,15.02 6.093,17.14 -5.703,0.01 6.625,17.8 -6.422,0.01 8.063,16.99 -31.567,0.06 -0.011,-4.29 v 0"
       style="fill:#ed1c24;fill-opacity:1;fill-rule:evenodd;stroke:none"
       transform="matrix(0.13333333,0,0,-0.13333333,0,257.33333)" /><path
       id="path101"
       d="m 973.285,1750.32 6.297,6.31 10.141,-10.17 10.156,10.17 6.281,-6.31 -10.133,-10.15 10.133,-10.17 -6.281,-6.29 -10.156,10.17 -10.141,-10.17 -6.297,6.29 10.149,10.17 -10.149,10.15 v 0"
       style="fill:#ed1c24;fill-opacity:1;fill-rule:evenodd;stroke:none"
       transform="matrix(0.13333333,0,0,-0.13333333,0,257.33333)" /><path
       id="path102"
       d="m 973.285,1627.66 6.297,6.29 10.141,-10.16 10.156,10.16 6.281,-6.29 -10.133,-10.17 10.133,-10.16 -6.281,-6.3 -10.156,10.17 -10.141,-10.17 -6.297,6.3 10.149,10.17 -10.149,10.16 v 0"
       style="fill:#ed1c24;fill-opacity:1;fill-rule:evenodd;stroke:none"
       transform="matrix(0.13333333,0,0,-0.13333333,0,257.33333)" /><path
       id="path103"
       d="m 973.285,1504.98 6.297,6.31 10.141,-10.18 10.156,10.18 6.281,-6.31 -10.133,-10.16 10.133,-10.16 -6.281,-6.29 -10.156,10.15 -10.141,-10.15 -6.297,6.29 10.149,10.16 -10.149,10.16 v 0"
       style="fill:#ed1c24;fill-opacity:1;fill-rule:evenodd;stroke:none"
       transform="matrix(0.13333333,0,0,-0.13333333,0,257.33333)" /><path
       id="path104"
       d="m 1186.39,1750.32 6.3,6.31 10.14,-10.17 10.15,10.17 6.29,-6.31 -10.14,-10.15 10.14,-10.17 -6.29,-6.29 -10.15,10.17 -10.14,-10.17 -6.3,6.29 10.15,10.17 -10.15,10.15 v 0"
       style="fill:#ed1c24;fill-opacity:1;fill-rule:evenodd;stroke:none"
       transform="matrix(0.13333333,0,0,-0.13333333,0,257.33333)" /><path
       id="path105"
       d="m 1186.39,1627.66 6.3,6.29 10.14,-10.16 10.15,10.16 6.29,-6.29 -10.14,-10.17 10.14,-10.16 -6.29,-6.3 -10.15,10.17 -10.14,-10.17 -6.3,6.3 10.15,10.17 -10.15,10.16 v 0"
       style="fill:#ed1c24;fill-opacity:1;fill-rule:evenodd;stroke:none"
       transform="matrix(0.13333333,0,0,-0.13333333,0,257.33333)" /><path
       id="path106"
       d="m 1186.39,1504.98 6.3,6.31 10.14,-10.18 10.15,10.18 6.29,-6.31 -10.14,-10.16 10.14,-10.16 -6.29,-6.29 -10.15,10.15 -10.14,-10.15 -6.3,6.29 10.15,10.16 -10.15,10.16 v 0"
       style="fill:#ed1c24;fill-opacity:1;fill-rule:evenodd;stroke:none"
       transform="matrix(0.13333333,0,0,-0.13333333,0,257.33333)" /><path
       id="path107"
       d="m 1079.84,1750.32 6.29,6.31 10.16,-10.17 10.15,10.17 6.29,-6.31 -10.16,-10.15 10.16,-10.17 -6.29,-6.29 -10.15,10.17 -10.16,-10.17 -6.29,6.29 10.14,10.17 -10.14,10.15 v 0"
       style="fill:#ed1c24;fill-opacity:1;fill-rule:evenodd;stroke:none"
       transform="matrix(0.13333333,0,0,-0.13333333,0,257.33333)" /><path
       id="path108"
       d="m 1079.84,1504.98 6.29,6.31 10.16,-10.18 10.15,10.18 6.29,-6.31 -10.16,-10.16 10.16,-10.16 -6.29,-6.29 -10.15,10.15 -10.16,-10.15 -6.29,6.29 10.14,10.16 -10.14,10.16 v 0"
       style="fill:#ed1c24;fill-opacity:1;fill-rule:evenodd;stroke:none"
       transform="matrix(0.13333333,0,0,-0.13333333,0,257.33333)" /><path
       id="path109"
       d="m 1010.9,1717.71 h 171.88 V 1515.76 H 1010.9 Z"
       style="fill:none;stroke:#231f20;stroke-width:3.25539;stroke-linecap:butt;stroke-linejoin:miter;stroke-miterlimit:2.6131;stroke-dasharray:none;stroke-opacity:1"
       transform="matrix(0.13326573,0,0,-0.13340133,0,257.33333)" /><path
       id="path110"
       d="m 741.473,1747.04 -5.309,2.57 2.777,-5.03 83.797,-85.88 -9.843,-10.47 3.179,-2.87 29.832,32.23 -3.168,3.28 -10.504,-11.48 -90.761,77.65 v 0"
       style="fill:#52a5e0;fill-opacity:1;fill-rule:evenodd;stroke:none"
       transform="matrix(0.13333333,0,0,-0.13333333,0,257.33333)" /><path
       id="path111"
       d="m 963.816,1212.99 c 0,0 -16.628,-16.47 -33.746,-3.61 0,0 -21.402,13.2 -44.59,0 0,0 -14.984,-13.93 -30.316,0 0,0 -22.48,12.49 -46.379,-1.43 0,0 -13.203,-11.07 -27.465,1.06 0,0 -22.129,12.5 -43.523,-0.71 0,0 -12.137,-10.35 -22.828,-3.67 l -15.539,8.92 v 24.94 l 15.539,-8.86 c 10.691,-6.69 22.828,3.66 22.828,3.66 21.394,13.22 43.523,0.73 43.523,0.73 14.262,-12.15 27.465,-1.08 27.465,-1.08 23.899,13.93 46.379,1.43 46.379,1.43 15.332,-13.93 30.316,0 30.316,0 23.188,13.21 44.59,0 44.59,0 17.118,-12.86 33.746,4.05 33.746,4.05 v -25.43 0"
       style="fill:#c8c7c7;fill-opacity:1;fill-rule:evenodd;stroke:none"
       transform="matrix(0.13333333,0,0,-0.13333333,0,257.33333)" /><path
       id="path112"
       d="m 963.738,1468.07 v 35.25 l -264.308,17.62 v -52.87 h 264.308 v 0"
       style="fill:#00a650;fill-opacity:1;fill-rule:evenodd;stroke:none"
       transform="matrix(0.13333333,0,0,-0.13333333,0,257.33333)" /><path
       id="path113"
       d="m 708.016,1177.26 6.953,-4.05 c 10.691,-6.69 22.828,3.66 22.828,3.66 21.394,13.22 43.523,0.72 43.523,0.72 14.262,-12.14 27.465,-1.07 27.465,-1.07 23.899,13.93 46.379,1.42 46.379,1.42 15.332,-13.93 30.316,0 30.316,0 23.188,13.22 44.59,0 44.59,0 17.118,-12.85 33.746,4.06 33.746,4.06 v -25.44 c 0,0 -16.628,-16.47 -33.746,-3.61 0,0 -21.402,13.21 -44.59,0 0,0 -14.984,-13.93 -30.316,0 0,0 -22.48,12.5 -46.379,-1.43 0,0 -13.203,-11.07 -27.465,1.07 0,0 -22.129,12.5 -43.523,-0.71 0,0 -2.844,-2.49 -6.988,-4.24 -2.133,1.25 -7.004,4.75 -12.461,11.94 -4.313,5.75 -8.614,12.07 -10.332,17.68 v 0"
       style="fill:#c8c7c7;fill-opacity:1;fill-rule:evenodd;stroke:none"
       transform="matrix(0.13333333,0,0,-0.13333333,0,257.33333)" /><path
       id="path114"
       d="m 963.816,1074.28 -6.058,6.93 c -3.988,4.8 -15.473,13.42 -29.067,20.68 -13.679,6.25 -27.75,11.71 -48.171,16.88 3.089,1.64 4.96,2.75 4.96,2.75 23.188,13.21 44.59,0 44.59,0 17.118,-12.86 33.746,4.05 33.746,4.05 v -51.29 0"
       style="fill:#c8c7c7;fill-opacity:1;fill-rule:evenodd;stroke:none"
       transform="matrix(0.13333333,0,0,-0.13333333,0,257.33333)" /><path
       id="path115"
       d="m 699.53,1467.3 h 529.86"
       style="fill:none;stroke:#231f20;stroke-width:13.0269;stroke-linecap:butt;stroke-linejoin:miter;stroke-miterlimit:2.6131;stroke-dasharray:none;stroke-opacity:1"
       transform="matrix(0.13326573,0,0,-0.13340133,0,257.33333)" /><path
       id="path116"
       d="m 964.239,1765.75 0.066,-691.5"
       style="fill:none;stroke:#231f20;stroke-width:13.0269;stroke-linecap:butt;stroke-linejoin:miter;stroke-miterlimit:2.6131;stroke-dasharray:none;stroke-opacity:1"
       transform="matrix(0.13326573,0,0,-0.13340133,0,257.33333)" /><path
       id="path117"
       d="m 970.246,1080.67 c 49.634,51.82 190.474,50.35 190.474,50.35 60.57,8.77 68.71,73.67 68.71,73.67 V 1765.6 H 699.784 v -560.91 c 0,0 7.406,-64.9 67.984,-73.67 0,0 140.853,1.47 190.475,-50.35 l 6.062,-6.93 z"
       style="fill:none;stroke:#231f20;stroke-width:13.0269;stroke-linecap:butt;stroke-linejoin:miter;stroke-miterlimit:2.6131;stroke-dasharray:none;stroke-opacity:1"
       transform="matrix(0.13326573,0,0,-0.13340133,0,257.33333)" /></g></svg>
